<?xml version="1.0" encoding="UTF-8"?>
<svg id="_圖層_1" data-name="圖層 1" xmlns="http://www.w3.org/2000/svg" xmlns:xlink="http://www.w3.org/1999/xlink" viewBox="0 0 708.66 708.66">
  <defs>
    <style>
      .cls-1 {
        fill: url(#_未命名漸層_118-25);
      }

      .cls-1, .cls-2, .cls-3, .cls-4, .cls-5, .cls-6, .cls-7, .cls-8, .cls-9, .cls-10, .cls-11, .cls-12, .cls-13, .cls-14, .cls-15, .cls-16, .cls-17, .cls-18, .cls-19, .cls-20, .cls-21, .cls-22, .cls-23, .cls-24, .cls-25, .cls-26, .cls-27, .cls-28, .cls-29, .cls-30, .cls-31, .cls-32, .cls-33, .cls-34, .cls-35, .cls-36, .cls-37, .cls-38, .cls-39, .cls-40, .cls-41, .cls-42, .cls-43, .cls-44, .cls-45, .cls-46, .cls-47, .cls-48, .cls-49, .cls-50, .cls-51, .cls-52, .cls-53, .cls-54, .cls-55, .cls-56, .cls-57, .cls-58, .cls-59, .cls-60, .cls-61, .cls-62, .cls-63, .cls-64, .cls-65, .cls-66, .cls-67, .cls-68, .cls-69, .cls-70, .cls-71, .cls-72, .cls-73, .cls-74, .cls-75, .cls-76, .cls-77, .cls-78, .cls-79, .cls-80, .cls-81, .cls-82, .cls-83, .cls-84, .cls-85, .cls-86, .cls-87, .cls-88, .cls-89, .cls-90, .cls-91, .cls-92, .cls-93, .cls-94, .cls-95, .cls-96, .cls-97, .cls-98, .cls-99, .cls-100, .cls-101, .cls-102, .cls-103, .cls-104, .cls-105, .cls-106, .cls-107, .cls-108, .cls-109, .cls-110, .cls-111, .cls-112, .cls-113, .cls-114 {
        stroke-width: 0px;
      }

      .cls-2 {
        fill: url(#_未命名漸層_118-6);
      }

      .cls-3 {
        fill: url(#_未命名漸層_1094-4);
      }

      .cls-4 {
        fill: url(#_未命名漸層_118-16);
      }

      .cls-5 {
        fill: url(#_未命名漸層_118-66);
      }

      .cls-6 {
        fill: url(#_未命名漸層_118-47);
      }

      .cls-7 {
        fill: url(#_未命名漸層_118-35);
      }

      .cls-8 {
        fill: url(#_未命名漸層_992);
      }

      .cls-9 {
        fill: url(#_未命名漸層_118-22);
      }

      .cls-10 {
        fill: url(#_未命名漸層_118-9);
      }

      .cls-11 {
        fill: url(#_未命名漸層_118-76);
      }

      .cls-12 {
        fill: url(#_未命名漸層_118-78);
      }

      .cls-13 {
        fill: url(#_未命名漸層_118-63);
      }

      .cls-14 {
        fill: url(#_未命名漸層_118-3);
      }

      .cls-15 {
        fill: url(#_未命名漸層_118-59);
      }

      .cls-16 {
        fill: url(#_未命名漸層_118-42);
      }

      .cls-17 {
        fill: url(#_未命名漸層_118-5);
      }

      .cls-18 {
        fill: url(#_未命名漸層_118-17);
      }

      .cls-19 {
        fill: url(#_未命名漸層_118-30);
      }

      .cls-20 {
        fill: url(#_未命名漸層_118-75);
      }

      .cls-21 {
        fill: url(#_未命名漸層_118-74);
      }

      .cls-22 {
        fill: url(#_未命名漸層_118-36);
      }

      .cls-23 {
        fill: url(#_未命名漸層_118-73);
      }

      .cls-24 {
        fill: url(#_未命名漸層_118-49);
      }

      .cls-25 {
        fill: url(#_未命名漸層_118-43);
      }

      .cls-26 {
        fill: url(#_未命名漸層_118-20);
      }

      .cls-27 {
        fill: url(#_未命名漸層_118-10);
      }

      .cls-28 {
        fill: url(#_未命名漸層_118-4);
      }

      .cls-29 {
        fill: url(#_未命名漸層_118-46);
      }

      .cls-30 {
        fill: url(#_未命名漸層_118-14);
      }

      .cls-31 {
        fill: url(#_未命名漸層_992-6);
      }

      .cls-32 {
        fill: url(#_未命名漸層_992-4);
      }

      .cls-33 {
        fill: url(#_未命名漸層_118-51);
      }

      .cls-34 {
        fill: url(#_未命名漸層_118-70);
      }

      .cls-35 {
        fill: url(#_未命名漸層_1094);
      }

      .cls-36 {
        fill: url(#_未命名漸層_1022);
      }

      .cls-37 {
        fill: url(#_未命名漸層_118-79);
      }

      .cls-38 {
        fill: url(#_未命名漸層_118-29);
      }

      .cls-39 {
        fill: url(#_未命名漸層_118-55);
      }

      .cls-40 {
        fill: url(#_未命名漸層_118-61);
      }

      .cls-41 {
        fill: url(#_未命名漸層_118-34);
      }

      .cls-42 {
        fill: url(#_未命名漸層_118-38);
      }

      .cls-43 {
        fill: url(#_未命名漸層_118-50);
      }

      .cls-44 {
        fill: url(#_未命名漸層_118-28);
      }

      .cls-45 {
        fill: url(#_未命名漸層_992-5);
      }

      .cls-46 {
        fill: url(#_未命名漸層_118-77);
      }

      .cls-115 {
        filter: url(#outer-glow-1);
      }

      .cls-47 {
        fill: url(#_未命名漸層_118-11);
      }

      .cls-48 {
        fill: url(#_未命名漸層_118-45);
      }

      .cls-49 {
        fill: url(#_未命名漸層_118-86);
      }

      .cls-50 {
        fill: url(#_未命名漸層_118-39);
      }

      .cls-51 {
        fill: url(#_未命名漸層_118-21);
      }

      .cls-52 {
        fill: url(#_未命名漸層_118-83);
      }

      .cls-53 {
        fill: url(#_未命名漸層_118-26);
      }

      .cls-54 {
        fill: url(#_未命名漸層_409);
      }

      .cls-55 {
        fill: url(#_未命名漸層_118-56);
      }

      .cls-56 {
        fill: url(#_未命名漸層_118-41);
      }

      .cls-57 {
        fill: url(#_未命名漸層_992-11);
      }

      .cls-58 {
        fill: url(#_未命名漸層_118-53);
      }

      .cls-59 {
        fill: url(#_未命名漸層_118-13);
      }

      .cls-60 {
        fill: url(#_未命名漸層_992-2);
      }

      .cls-61 {
        fill: url(#_未命名漸層_118-31);
      }

      .cls-62 {
        fill: #dcdddd;
      }

      .cls-63 {
        fill: url(#_未命名漸層_118-23);
      }

      .cls-64 {
        fill: url(#_未命名漸層_1094-2);
      }

      .cls-65 {
        fill: url(#_未命名漸層_992-8);
      }

      .cls-66 {
        fill: url(#_未命名漸層_737-3);
      }

      .cls-67 {
        fill: url(#_未命名漸層_118-82);
      }

      .cls-68 {
        fill: url(#_未命名漸層_118-85);
      }

      .cls-69 {
        fill: url(#_未命名漸層_461);
      }

      .cls-70 {
        fill: url(#_未命名漸層_992-12);
      }

      .cls-71 {
        fill: url(#_未命名漸層_118-2);
      }

      .cls-72 {
        fill: url(#_未命名漸層_118-68);
      }

      .cls-73 {
        fill: url(#_未命名漸層_118-27);
      }

      .cls-74 {
        fill: url(#_未命名漸層_118-64);
      }

      .cls-75 {
        fill: url(#_未命名漸層_118);
      }

      .cls-76 {
        fill: url(#_未命名漸層_118-57);
      }

      .cls-77 {
        fill: url(#_未命名漸層_1064);
      }

      .cls-78 {
        fill: url(#_未命名漸層_992-7);
      }

      .cls-79 {
        fill: url(#_未命名漸層_118-44);
      }

      .cls-80 {
        fill: url(#_未命名漸層_992-3);
      }

      .cls-81 {
        fill: url(#_未命名漸層_1094-3);
      }

      .cls-82 {
        fill: url(#_未命名漸層_118-52);
      }

      .cls-83 {
        fill: url(#_未命名漸層_118-65);
      }

      .cls-84 {
        fill: url(#_未命名漸層_118-88);
      }

      .cls-85 {
        fill: url(#_未命名漸層_118-37);
      }

      .cls-86 {
        fill: url(#_未命名漸層_409-3);
      }

      .cls-87 {
        fill: url(#_未命名漸層_118-15);
      }

      .cls-88 {
        fill: url(#_未命名漸層_118-54);
      }

      .cls-89 {
        fill: url(#_未命名漸層_409-2);
      }

      .cls-90 {
        fill: url(#_未命名漸層_118-60);
      }

      .cls-91 {
        fill: url(#_未命名漸層_992-10);
      }

      .cls-92 {
        fill: url(#_未命名漸層_737);
      }

      .cls-93 {
        fill: url(#_未命名漸層_118-19);
      }

      .cls-94 {
        fill: url(#_未命名漸層_118-84);
      }

      .cls-95 {
        fill: url(#_未命名漸層_118-80);
      }

      .cls-96 {
        fill: url(#_未命名漸層_118-12);
      }

      .cls-97 {
        fill: url(#_未命名漸層_737-2);
      }

      .cls-98 {
        fill: url(#_未命名漸層_118-69);
      }

      .cls-99 {
        fill: url(#_未命名漸層_118-81);
      }

      .cls-100 {
        fill: url(#_未命名漸層_118-32);
      }

      .cls-101 {
        fill: url(#_未命名漸層_118-33);
      }

      .cls-102 {
        fill: url(#_未命名漸層_992-9);
      }

      .cls-103 {
        fill: url(#_未命名漸層_118-40);
      }

      .cls-104 {
        fill: url(#_未命名漸層_118-8);
      }

      .cls-105 {
        fill: url(#_未命名漸層_118-58);
      }

      .cls-106 {
        fill: url(#_未命名漸層_118-67);
      }

      .cls-107 {
        fill: url(#_未命名漸層_118-48);
      }

      .cls-108 {
        fill: url(#_未命名漸層_118-24);
      }

      .cls-109 {
        fill: url(#_未命名漸層_118-71);
      }

      .cls-110 {
        fill: url(#_未命名漸層_118-87);
      }

      .cls-111 {
        fill: url(#_未命名漸層_118-18);
      }

      .cls-112 {
        fill: url(#_未命名漸層_118-72);
      }

      .cls-113 {
        fill: url(#_未命名漸層_118-62);
      }

      .cls-114 {
        fill: url(#_未命名漸層_118-7);
      }
    </style>
    <filter id="outer-glow-1" filterUnits="userSpaceOnUse">
      <feOffset dx="0" dy="0"/>
      <feGaussianBlur result="blur" stdDeviation="7.09"/>
      <feFlood flood-color="#468ccb" flood-opacity="1"/>
      <feComposite in2="blur" operator="in"/>
      <feComposite in="SourceGraphic"/>
    </filter>
    <radialGradient id="_未命名漸層_1022" data-name="未命名漸層 1022" cx="456.65" cy="410.8" fx="456.65" fy="410.8" r="27.62" gradientUnits="userSpaceOnUse">
      <stop offset=".15" stop-color="#eda060"/>
      <stop offset=".36" stop-color="#e99c61"/>
      <stop offset=".54" stop-color="#e09267"/>
      <stop offset=".71" stop-color="#d18070"/>
      <stop offset=".75" stop-color="#cc7b73"/>
    </radialGradient>
    <radialGradient id="_未命名漸層_409" data-name="未命名漸層 409" cx="435.91" cy="111.54" fx="435.91" fy="111.54" r="149.62" gradientUnits="userSpaceOnUse">
      <stop offset=".33" stop-color="#f9c789"/>
      <stop offset=".5" stop-color="#f3b974"/>
      <stop offset=".53" stop-color="#efb376"/>
      <stop offset=".69" stop-color="#e09580"/>
      <stop offset=".78" stop-color="#db8b84"/>
    </radialGradient>
    <radialGradient id="_未命名漸層_409-2" data-name="未命名漸層 409" cx="435.91" cy="111.54" fx="435.91" fy="111.54" r="149.62" xlink:href="#_未命名漸層_409"/>
    <radialGradient id="_未命名漸層_409-3" data-name="未命名漸層 409" cx="435.91" cy="111.54" fx="435.91" fy="111.54" r="149.62" xlink:href="#_未命名漸層_409"/>
    <radialGradient id="_未命名漸層_118" data-name="未命名漸層 118" cx="344.65" cy="366.06" fx="344.65" fy="366.06" r="241.87" gradientUnits="userSpaceOnUse">
      <stop offset=".15" stop-color="#92c2cd"/>
      <stop offset=".29" stop-color="#8fbeca"/>
      <stop offset=".4" stop-color="#86b4c2"/>
      <stop offset=".51" stop-color="#78a2b4"/>
      <stop offset=".61" stop-color="#6489a0"/>
      <stop offset=".7" stop-color="#4d6d8a"/>
    </radialGradient>
    <radialGradient id="_未命名漸層_118-2" data-name="未命名漸層 118" cx="344.65" cy="366.06" fx="344.65" fy="366.06" r="241.87" xlink:href="#_未命名漸層_118"/>
    <radialGradient id="_未命名漸層_118-3" data-name="未命名漸層 118" cx="344.65" fx="344.65" r="241.87" xlink:href="#_未命名漸層_118"/>
    <radialGradient id="_未命名漸層_118-4" data-name="未命名漸層 118" cx="344.65" fx="344.65" r="241.87" xlink:href="#_未命名漸層_118"/>
    <radialGradient id="_未命名漸層_118-5" data-name="未命名漸層 118" cx="344.65" cy="366.06" fx="344.65" fy="366.06" r="241.87" xlink:href="#_未命名漸層_118"/>
    <radialGradient id="_未命名漸層_118-6" data-name="未命名漸層 118" cx="344.65" cy="366.06" fx="344.65" fy="366.06" r="241.87" xlink:href="#_未命名漸層_118"/>
    <radialGradient id="_未命名漸層_118-7" data-name="未命名漸層 118" cx="344.65" cy="366.06" fx="344.65" fy="366.06" r="241.87" xlink:href="#_未命名漸層_118"/>
    <radialGradient id="_未命名漸層_118-8" data-name="未命名漸層 118" cy="366.06" fy="366.06" r="241.87" xlink:href="#_未命名漸層_118"/>
    <radialGradient id="_未命名漸層_118-9" data-name="未命名漸層 118" cx="344.65" fx="344.65" r="241.87" xlink:href="#_未命名漸層_118"/>
    <radialGradient id="_未命名漸層_118-10" data-name="未命名漸層 118" cx="344.65" cy="366.06" fx="344.65" fy="366.06" r="241.87" xlink:href="#_未命名漸層_118"/>
    <radialGradient id="_未命名漸層_118-11" data-name="未命名漸層 118" cx="344.65" cy="366.06" fx="344.65" fy="366.06" r="241.87" xlink:href="#_未命名漸層_118"/>
    <radialGradient id="_未命名漸層_118-12" data-name="未命名漸層 118" cx="344.65" fx="344.65" r="241.87" xlink:href="#_未命名漸層_118"/>
    <radialGradient id="_未命名漸層_118-13" data-name="未命名漸層 118" cx="344.65" fx="344.65" r="241.87" gradientTransform="translate(507.09 -207.74) rotate(45.9)" xlink:href="#_未命名漸層_118"/>
    <radialGradient id="_未命名漸層_118-14" data-name="未命名漸層 118" cx="344.65" fx="344.65" r="241.87" xlink:href="#_未命名漸層_118"/>
    <radialGradient id="_未命名漸層_118-15" data-name="未命名漸層 118" cy="366.06" fy="366.06" r="241.87" xlink:href="#_未命名漸層_118"/>
    <radialGradient id="_未命名漸層_118-16" data-name="未命名漸層 118" cx="344.65" cy="366.06" fx="344.65" fy="366.06" r="241.87" xlink:href="#_未命名漸層_118"/>
    <radialGradient id="_未命名漸層_118-17" data-name="未命名漸層 118" cx="344.65" cy="366.06" fx="344.65" fy="366.06" r="241.87" xlink:href="#_未命名漸層_118"/>
    <radialGradient id="_未命名漸層_118-18" data-name="未命名漸層 118" cx="344.65" cy="366.06" fx="344.65" fy="366.06" r="241.87" xlink:href="#_未命名漸層_118"/>
    <radialGradient id="_未命名漸層_118-19" data-name="未命名漸層 118" cx="344.65" fx="344.65" r="241.87" xlink:href="#_未命名漸層_118"/>
    <radialGradient id="_未命名漸層_118-20" data-name="未命名漸層 118" cx="344.65" fx="344.65" r="241.87" xlink:href="#_未命名漸層_118"/>
    <radialGradient id="_未命名漸層_118-21" data-name="未命名漸層 118" cx="344.65" cy="366.06" fx="344.65" fy="366.06" r="241.87" xlink:href="#_未命名漸層_118"/>
    <radialGradient id="_未命名漸層_118-22" data-name="未命名漸層 118" cx="344.65" fx="344.65" r="241.87" xlink:href="#_未命名漸層_118"/>
    <radialGradient id="_未命名漸層_118-23" data-name="未命名漸層 118" cx="344.65" cy="366.06" fx="344.65" fy="366.06" r="241.87" xlink:href="#_未命名漸層_118"/>
    <radialGradient id="_未命名漸層_118-24" data-name="未命名漸層 118" cx="344.65" fx="344.65" r="241.87" xlink:href="#_未命名漸層_118"/>
    <radialGradient id="_未命名漸層_118-25" data-name="未命名漸層 118" cx="344.65" cy="366.06" fx="344.65" fy="366.06" r="241.87" xlink:href="#_未命名漸層_118"/>
    <radialGradient id="_未命名漸層_118-26" data-name="未命名漸層 118" cx="344.65" cy="366.06" fx="344.65" fy="366.06" r="241.87" xlink:href="#_未命名漸層_118"/>
    <radialGradient id="_未命名漸層_118-27" data-name="未命名漸層 118" cx="344.65" fx="344.65" r="241.87" xlink:href="#_未命名漸層_118"/>
    <radialGradient id="_未命名漸層_118-28" data-name="未命名漸層 118" cx="344.65" cy="366.06" fx="344.65" fy="366.06" r="241.87" xlink:href="#_未命名漸層_118"/>
    <radialGradient id="_未命名漸層_118-29" data-name="未命名漸層 118" cx="344.65" cy="366.06" fx="344.65" fy="366.06" r="241.87" xlink:href="#_未命名漸層_118"/>
    <radialGradient id="_未命名漸層_118-30" data-name="未命名漸層 118" cx="344.65" cy="366.06" fx="344.65" fy="366.06" r="241.87" xlink:href="#_未命名漸層_118"/>
    <radialGradient id="_未命名漸層_118-31" data-name="未命名漸層 118" cx="344.65" cy="366.06" fx="344.65" fy="366.06" r="241.87" xlink:href="#_未命名漸層_118"/>
    <radialGradient id="_未命名漸層_118-32" data-name="未命名漸層 118" cx="344.65" cy="366.06" fx="344.65" fy="366.06" r="241.87" xlink:href="#_未命名漸層_118"/>
    <radialGradient id="_未命名漸層_118-33" data-name="未命名漸層 118" cx="344.65" fx="344.65" r="241.87" xlink:href="#_未命名漸層_118"/>
    <radialGradient id="_未命名漸層_118-34" data-name="未命名漸層 118" cx="344.65" cy="366.06" fx="344.65" fy="366.06" r="241.87" xlink:href="#_未命名漸層_118"/>
    <radialGradient id="_未命名漸層_118-35" data-name="未命名漸層 118" r="241.87" xlink:href="#_未命名漸層_118"/>
    <radialGradient id="_未命名漸層_118-36" data-name="未命名漸層 118" cx="344.65" fx="344.65" r="241.87" xlink:href="#_未命名漸層_118"/>
    <radialGradient id="_未命名漸層_118-37" data-name="未命名漸層 118" cx="344.65" fx="344.65" r="241.87" xlink:href="#_未命名漸層_118"/>
    <radialGradient id="_未命名漸層_118-38" data-name="未命名漸層 118" cx="344.65" fx="344.65" r="241.87" xlink:href="#_未命名漸層_118"/>
    <radialGradient id="_未命名漸層_118-39" data-name="未命名漸層 118" cx="344.65" cy="366.06" fx="344.65" fy="366.06" r="241.87" xlink:href="#_未命名漸層_118"/>
    <radialGradient id="_未命名漸層_118-40" data-name="未命名漸層 118" cx="344.65" fx="344.65" r="241.87" xlink:href="#_未命名漸層_118"/>
    <radialGradient id="_未命名漸層_118-41" data-name="未命名漸層 118" cx="344.65" cy="366.06" fx="344.65" fy="366.06" r="241.87" xlink:href="#_未命名漸層_118"/>
    <radialGradient id="_未命名漸層_118-42" data-name="未命名漸層 118" cx="344.65" cy="366.06" fx="344.65" fy="366.06" r="241.87" xlink:href="#_未命名漸層_118"/>
    <radialGradient id="_未命名漸層_118-43" data-name="未命名漸層 118" cx="344.65" fx="344.65" r="241.87" xlink:href="#_未命名漸層_118"/>
    <radialGradient id="_未命名漸層_118-44" data-name="未命名漸層 118" cx="344.65" cy="366.06" fx="344.65" fy="366.06" r="241.87" xlink:href="#_未命名漸層_118"/>
    <radialGradient id="_未命名漸層_118-45" data-name="未命名漸層 118" cx="344.65" cy="366.06" fx="344.65" fy="366.06" r="241.87" xlink:href="#_未命名漸層_118"/>
    <radialGradient id="_未命名漸層_118-46" data-name="未命名漸層 118" cx="344.65" cy="366.06" fx="344.65" fy="366.06" r="241.87" xlink:href="#_未命名漸層_118"/>
    <radialGradient id="_未命名漸層_118-47" data-name="未命名漸層 118" cx="344.65" cy="366.06" fx="344.65" fy="366.06" r="241.87" xlink:href="#_未命名漸層_118"/>
    <radialGradient id="_未命名漸層_118-48" data-name="未命名漸層 118" cx="344.65" cy="366.06" fx="344.65" fy="366.06" r="241.87" xlink:href="#_未命名漸層_118"/>
    <radialGradient id="_未命名漸層_118-49" data-name="未命名漸層 118" cx="344.65" cy="366.06" fx="344.65" fy="366.06" r="241.87" xlink:href="#_未命名漸層_118"/>
    <radialGradient id="_未命名漸層_118-50" data-name="未命名漸層 118" cx="344.65" cy="366.06" fx="344.65" fy="366.06" r="241.87" xlink:href="#_未命名漸層_118"/>
    <radialGradient id="_未命名漸層_118-51" data-name="未命名漸層 118" cx="344.65" cy="366.06" fx="344.65" fy="366.06" r="241.87" xlink:href="#_未命名漸層_118"/>
    <radialGradient id="_未命名漸層_118-52" data-name="未命名漸層 118" cx="344.65" cy="366.06" fx="344.65" fy="366.06" r="241.87" xlink:href="#_未命名漸層_118"/>
    <radialGradient id="_未命名漸層_118-53" data-name="未命名漸層 118" cx="344.65" cy="366.06" fx="344.65" fy="366.06" r="241.87" xlink:href="#_未命名漸層_118"/>
    <radialGradient id="_未命名漸層_118-54" data-name="未命名漸層 118" cx="344.65" cy="366.06" fx="344.65" fy="366.06" r="241.87" xlink:href="#_未命名漸層_118"/>
    <radialGradient id="_未命名漸層_118-55" data-name="未命名漸層 118" cx="344.65" cy="366.06" fx="344.65" fy="366.06" r="241.87" xlink:href="#_未命名漸層_118"/>
    <radialGradient id="_未命名漸層_118-56" data-name="未命名漸層 118" cx="344.65" cy="366.06" fx="344.65" fy="366.06" r="241.87" xlink:href="#_未命名漸層_118"/>
    <radialGradient id="_未命名漸層_118-57" data-name="未命名漸層 118" cx="344.65" fx="344.65" r="242.04" xlink:href="#_未命名漸層_118"/>
    <radialGradient id="_未命名漸層_118-58" data-name="未命名漸層 118" cx="344.65" cy="366.06" fx="344.65" fy="366.06" r="241.87" xlink:href="#_未命名漸層_118"/>
    <radialGradient id="_未命名漸層_118-59" data-name="未命名漸層 118" cx="344.65" fx="344.65" r="241.87" xlink:href="#_未命名漸層_118"/>
    <radialGradient id="_未命名漸層_118-60" data-name="未命名漸層 118" cx="344.65" cy="366.06" fx="344.65" fy="366.06" r="241.87" xlink:href="#_未命名漸層_118"/>
    <radialGradient id="_未命名漸層_118-61" data-name="未命名漸層 118" cx="344.65" cy="366.06" fx="344.65" fy="366.06" r="241.87" xlink:href="#_未命名漸層_118"/>
    <radialGradient id="_未命名漸層_118-62" data-name="未命名漸層 118" cx="344.65" fx="344.65" r="241.87" xlink:href="#_未命名漸層_118"/>
    <radialGradient id="_未命名漸層_118-63" data-name="未命名漸層 118" cx="344.65" cy="366.06" fx="344.65" fy="366.06" r="241.87" xlink:href="#_未命名漸層_118"/>
    <radialGradient id="_未命名漸層_118-64" data-name="未命名漸層 118" cx="344.65" cy="366.06" fx="344.65" fy="366.06" r="241.87" xlink:href="#_未命名漸層_118"/>
    <radialGradient id="_未命名漸層_118-65" data-name="未命名漸層 118" cx="344.65" cy="366.06" fx="344.65" fy="366.06" r="241.87" xlink:href="#_未命名漸層_118"/>
    <radialGradient id="_未命名漸層_118-66" data-name="未命名漸層 118" cx="344.65" cy="366.06" fx="344.65" fy="366.06" r="241.87" xlink:href="#_未命名漸層_118"/>
    <radialGradient id="_未命名漸層_118-67" data-name="未命名漸層 118" cx="344.65" cy="366.06" fx="344.65" fy="366.06" r="241.87" xlink:href="#_未命名漸層_118"/>
    <radialGradient id="_未命名漸層_118-68" data-name="未命名漸層 118" cx="344.65" cy="366.06" fx="344.65" fy="366.06" r="241.87" xlink:href="#_未命名漸層_118"/>
    <radialGradient id="_未命名漸層_118-69" data-name="未命名漸層 118" cx="344.65" cy="366.06" fx="344.65" fy="366.06" r="241.87" xlink:href="#_未命名漸層_118"/>
    <radialGradient id="_未命名漸層_118-70" data-name="未命名漸層 118" cx="344.65" fx="344.65" r="241.87" xlink:href="#_未命名漸層_118"/>
    <radialGradient id="_未命名漸層_118-71" data-name="未命名漸層 118" cx="344.65" cy="366.06" fx="344.65" fy="366.06" r="241.87" xlink:href="#_未命名漸層_118"/>
    <radialGradient id="_未命名漸層_118-72" data-name="未命名漸層 118" cx="344.65" cy="366.06" fx="344.65" fy="366.06" r="241.87" xlink:href="#_未命名漸層_118"/>
    <radialGradient id="_未命名漸層_118-73" data-name="未命名漸層 118" cx="344.65" cy="366.06" fx="344.65" fy="366.06" r="241.87" xlink:href="#_未命名漸層_118"/>
    <radialGradient id="_未命名漸層_118-74" data-name="未命名漸層 118" cx="344.65" cy="366.06" fx="344.65" fy="366.06" r="241.87" xlink:href="#_未命名漸層_118"/>
    <radialGradient id="_未命名漸層_118-75" data-name="未命名漸層 118" cx="344.65" fx="344.65" r="241.87" xlink:href="#_未命名漸層_118"/>
    <radialGradient id="_未命名漸層_118-76" data-name="未命名漸層 118" cx="344.65" cy="366.06" fx="344.65" fy="366.06" r="241.87" xlink:href="#_未命名漸層_118"/>
    <radialGradient id="_未命名漸層_118-77" data-name="未命名漸層 118" cx="344.65" cy="366.06" fx="344.65" fy="366.06" r="241.87" xlink:href="#_未命名漸層_118"/>
    <radialGradient id="_未命名漸層_118-78" data-name="未命名漸層 118" cx="344.65" cy="366.06" fx="344.65" fy="366.06" r="241.87" xlink:href="#_未命名漸層_118"/>
    <radialGradient id="_未命名漸層_118-79" data-name="未命名漸層 118" cx="344.65" cy="366.06" fx="344.65" fy="366.06" r="241.87" xlink:href="#_未命名漸層_118"/>
    <radialGradient id="_未命名漸層_118-80" data-name="未命名漸層 118" cx="344.65" cy="366.06" fx="344.65" fy="366.06" r="241.87" xlink:href="#_未命名漸層_118"/>
    <radialGradient id="_未命名漸層_118-81" data-name="未命名漸層 118" cx="344.65" fx="344.65" r="241.87" xlink:href="#_未命名漸層_118"/>
    <radialGradient id="_未命名漸層_118-82" data-name="未命名漸層 118" cx="344.65" cy="366.06" fx="344.65" fy="366.06" r="241.87" xlink:href="#_未命名漸層_118"/>
    <radialGradient id="_未命名漸層_118-83" data-name="未命名漸層 118" cx="344.65" cy="366.06" fx="344.65" fy="366.06" r="241.87" xlink:href="#_未命名漸層_118"/>
    <radialGradient id="_未命名漸層_118-84" data-name="未命名漸層 118" cx="344.65" cy="366.06" fx="344.65" fy="366.06" r="241.87" xlink:href="#_未命名漸層_118"/>
    <radialGradient id="_未命名漸層_118-85" data-name="未命名漸層 118" cx="344.65" cy="366.06" fx="344.65" fy="366.06" r="241.87" xlink:href="#_未命名漸層_118"/>
    <radialGradient id="_未命名漸層_118-86" data-name="未命名漸層 118" cx="344.65" cy="366.06" fx="344.65" fy="366.06" r="241.87" xlink:href="#_未命名漸層_118"/>
    <radialGradient id="_未命名漸層_118-87" data-name="未命名漸層 118" cx="344.65" cy="366.06" fx="344.65" fy="366.06" r="241.87" xlink:href="#_未命名漸層_118"/>
    <radialGradient id="_未命名漸層_118-88" data-name="未命名漸層 118" cx="344.65" cy="366.06" fx="344.65" fy="366.06" r="241.87" xlink:href="#_未命名漸層_118"/>
    <radialGradient id="_未命名漸層_461" data-name="未命名漸層 461" cx="191.02" cy="261.76" fx="191.02" fy="261.76" r="52.91" gradientUnits="userSpaceOnUse">
      <stop offset=".06" stop-color="#e8c797"/>
      <stop offset=".13" stop-color="#dec196"/>
      <stop offset=".26" stop-color="#c3b496"/>
      <stop offset=".43" stop-color="#979e96"/>
      <stop offset=".62" stop-color="#5b7f96"/>
      <stop offset=".7" stop-color="#417296"/>
    </radialGradient>
    <linearGradient id="_未命名漸層_1094" data-name="未命名漸層 1094" x1="129.94" y1="385.21" x2="510.39" y2="413.65" gradientUnits="userSpaceOnUse">
      <stop offset=".26" stop-color="#b0b3b8"/>
      <stop offset=".47" stop-color="#8997a5"/>
      <stop offset=".69" stop-color="#667e94"/>
      <stop offset=".88" stop-color="#516f89"/>
      <stop offset="1" stop-color="#4a6a86"/>
    </linearGradient>
    <linearGradient id="_未命名漸層_1094-2" data-name="未命名漸層 1094" x1="136.68" y1="295.08" x2="517.13" y2="323.53" xlink:href="#_未命名漸層_1094"/>
    <linearGradient id="_未命名漸層_1094-3" data-name="未命名漸層 1094" x1="136.59" y1="296.28" x2="517.04" y2="324.72" xlink:href="#_未命名漸層_1094"/>
    <linearGradient id="_未命名漸層_1094-4" data-name="未命名漸層 1094" x1="136.2" y1="301.53" x2="516.64" y2="329.97" xlink:href="#_未命名漸層_1094"/>
    <linearGradient id="_未命名漸層_737" data-name="未命名漸層 737" x1="197.85" y1="305.61" x2="204.78" y2="305.61" gradientUnits="userSpaceOnUse">
      <stop offset=".06" stop-color="#e9e3e0"/>
      <stop offset=".27" stop-color="#dfd9d6"/>
      <stop offset=".64" stop-color="#c6c1bb"/>
      <stop offset="1" stop-color="#a8a39b"/>
    </linearGradient>
    <linearGradient id="_未命名漸層_737-2" data-name="未命名漸層 737" x1="202.17" y1="314.42" x2="209.08" y2="314.42" xlink:href="#_未命名漸層_737"/>
    <linearGradient id="_未命名漸層_737-3" data-name="未命名漸層 737" x1="200.1" y1="309.97" x2="207.02" y2="309.97" xlink:href="#_未命名漸層_737"/>
    <radialGradient id="_未命名漸層_992" data-name="未命名漸層 992" cx="279.17" cy="219.54" fx="279.17" fy="219.54" r="25.82" gradientUnits="userSpaceOnUse">
      <stop offset=".15" stop-color="#eda184"/>
      <stop offset=".42" stop-color="#eb9d86"/>
      <stop offset=".65" stop-color="#e8938f"/>
      <stop offset=".75" stop-color="#e68c95"/>
    </radialGradient>
    <radialGradient id="_未命名漸層_992-2" data-name="未命名漸層 992" cx="279.17" cy="219.54" fx="279.17" fy="219.54" r="25.82" xlink:href="#_未命名漸層_992"/>
    <radialGradient id="_未命名漸層_1064" data-name="未命名漸層 1064" cx="399.17" cy="448.73" fx="399.17" fy="448.73" r="33.79" gradientUnits="userSpaceOnUse">
      <stop offset=".19" stop-color="#ffe694"/>
      <stop offset=".32" stop-color="#f9d986"/>
      <stop offset=".55" stop-color="#ecb763"/>
      <stop offset=".69" stop-color="#e29e49"/>
    </radialGradient>
    <radialGradient id="_未命名漸層_992-3" data-name="未命名漸層 992" cx="556.8" cy="334.21" fx="556.8" fy="334.21" r="16.28" xlink:href="#_未命名漸層_992"/>
    <radialGradient id="_未命名漸層_992-4" data-name="未命名漸層 992" cx="347.02" cy="469.76" fx="347.02" fy="469.76" r="12.89" xlink:href="#_未命名漸層_992"/>
    <radialGradient id="_未命名漸層_992-5" data-name="未命名漸層 992" cx="182.58" cy="467.1" fx="168.36" fy="467.1" r="14.53" xlink:href="#_未命名漸層_992"/>
    <radialGradient id="_未命名漸層_992-6" data-name="未命名漸層 992" cx="213.25" cy="209.32" fx="213.25" fy="209.32" r="11.22" xlink:href="#_未命名漸層_992"/>
    <radialGradient id="_未命名漸層_992-7" data-name="未命名漸層 992" cx="342.95" cy="326.29" fx="342.95" fy="326.29" r="155.93" xlink:href="#_未命名漸層_992"/>
    <radialGradient id="_未命名漸層_992-8" data-name="未命名漸層 992" cx="406.52" cy="312.07" fx="406.52" fy="312.07" r="155.92" xlink:href="#_未命名漸層_992"/>
    <radialGradient id="_未命名漸層_992-9" data-name="未命名漸層 992" cx="295.44" cy="304.05" fx="295.44" fy="304.05" r="61.11" xlink:href="#_未命名漸層_992"/>
    <radialGradient id="_未命名漸層_992-10" data-name="未命名漸層 992" cx="379.99" cy="295.13" fx="379.99" fy="295.13" r="80.46" xlink:href="#_未命名漸層_992"/>
    <radialGradient id="_未命名漸層_992-11" data-name="未命名漸層 992" cx="477.65" cy="289.13" fx="477.65" fy="289.13" r="59.43" xlink:href="#_未命名漸層_992"/>
    <radialGradient id="_未命名漸層_992-12" data-name="未命名漸層 992" cx="383.51" cy="364.11" fx="383.51" fy="364.11" r="155.93" xlink:href="#_未命名漸層_992"/>
  </defs>
  <g class="cls-115">
    <path class="cls-36" d="m463.16,433.37c-5.77,4.54-12.08,5.3-18.25,2.19-5.42-2.73-8.91-7.58-9.58-13.31-.67-5.72,1.58-11.36,6.02-15.1,3.19-2.69,6.77-3.99,11.07-3.99,1.33,0,2.72.12,4.19.37.09.02.18.02.27.01,4.29,1.49,7.4,3.81,9.78,7.27,4.79,6.97,3.18,17.3-3.5,22.55Z"/>
    <g>
      <path class="cls-54" d="m323.95,120.02c.04.22.07.43.12.65,2.01,8.36,8.65,14.15,15.58,14.15.96,0,1.92-.11,2.88-.34,2.32-.56,4.45-1.8,6.19-3.6,0,0,0,0,0,0,3.09-3.2,4.64-7.86,4.48-12.78.25,0,.5-.01.74-.01,26.11,0,52.02,4.34,76.64,12.72l-7.92,15.71c-.27.54-.06,1.2.48,1.47.16.08.33.12.5.12.4,0,.79-.22.98-.6l8.06-15.99c3.39,1.19,6.75,2.47,10.08,3.81l-16.28,12.67c-.48.37-.57,1.06-.19,1.54.22.28.54.42.87.42.24,0,.47-.08.67-.23l17.28-13.45c4.92,2.04,9.78,4.24,14.56,6.61-.95,2.03-1.42,4.2-1.29,6.32h0s0,0,0,0c.13,2.1.85,4.06,2.07,5.66,2.11,2.77,5.44,4.18,9.04,4.17,3.2,0,6.62-1.11,9.58-3.36.48-.37.9-.78,1.33-1.19,7.11,4.47,14,9.36,20.65,14.61-1.18,2.13-2.4,4.23-3.74,6.28-.72,1.1.34,2.36,1.95,4.27.49.58,1.26,1.5,1.55,1.99-1.11,1.65-1.92,3.23-2.7,4.77-1.15,2.26-2.24,4.39-4.04,6.32-.57.25-3.24-.05-4.84-.23-3.6-.41-5.51-.58-6.41.28-7.36,7.04-15.71,12.9-24.83,17.43-1.27.63-1.52,2.3-1.76,3.92-.11.72-.31,2.06-.56,2.28-7.03,3.06-13.53,5.7-21.88,7.09-.47-.25-1.62-1.12-2.39-1.71-2.2-1.67-2.93-2.17-3.59-2.17-.07,0-.13,0-.2.02-10.92,1.54-22,1.27-32.93-.83-8.77-1.68-17.25-4.51-25.2-8.4-.96-.47-2.28.15-5.82,2.05-1.34.72-3.33,1.79-4.03,1.94-2.6-1.37-4.29-1.79-5.66-2.12-1.76-.43-3.04-.75-5.66-2.9-.21-.86-.23-4.08-.25-6.25-.04-5.97-.16-7.04-.82-7.63-7.95-7.04-14.7-15.27-20.07-24.45-.84-1.43-3.26-1.49-6.06-1.57-1.43-.04-3.84-.1-4.23-.47-2.7-5.35-4.8-13.09-6.48-19.3l-.47-1.71c.33-.45,1.64-1.29,2.44-1.81,2.04-1.31,3.8-2.45,3.46-3.98-1.52-6.82-2.25-13.72-2.31-20.65,3.47-.6,6.95-1.11,10.43-1.55Z"/>
      <path class="cls-89" d="m461.65,143.87c4.54,2.31,9.02,4.77,13.42,7.38-2.23,1.28-4.67,1.96-7.02,1.86-2.89-.1-5.33-1.28-6.88-3.31-.17-.23-.31-.48-.46-.72-.05-.09-.1-.18-.15-.27-.06-1.65.36-3.33,1.09-4.93Z"/>
      <path class="cls-86" d="m351.03,118.13c.15,4.24-1.13,8.24-3.7,11.02l-.2.06c-3.2.78-6.61-.04-9.58-2.29-2.49-1.89-4.38-4.62-5.54-7.79,6.34-.59,12.68-.92,19.02-1Z"/>
    </g>
    <g>
      <path class="cls-75" d="m252.63,348.09c-8.67,14.47-13.06,29.27-13.06,43.96,0,22.31,8.71,38.51,25.89,48.2-3.81,7.55-5.75,14.63-5.75,21.06,0,4.87,1.2,10.15,3.58,15.67,2.74,6.39,5.32,9.24,8.37,9.24,2.38,0,3.47-1.67,3.47-3.21,0-1.22-.45-2.33-1.31-3.24-4.5-5.68-6.78-11.98-6.78-18.72,0-4.97,1.63-10.89,4.86-17.62,7.02,2.72,15.06,4.1,23.93,4.1,33.32,0,63.8-12.85,90.62-38.21,9.33-8.81,16.14-17.63,20.23-26.21,4.04-8.47,8.51-22.92,13.29-42.96,2.79-11.96,4.96-20.51,6.47-25.44,11.58-6.97,21.56-14.36,29.68-21.97,8.86-8.32,12.99-14.44,12.99-19.26,0-2.15-.8-7.17-8.18-7.17s-16.02,4.93-25.8,15.08c-9.25,9.59-17.05,21.16-23.2,34.41-8.26,4.99-17.69,10.97-28.09,17.84.76-4.05,1.14-8.02,1.14-11.84,0-10.61-3.34-19.16-9.92-25.43-6.56-6.24-15.45-9.4-26.43-9.4-19.59,0-39.63,7.43-59.56,22.1-15.55,11.51-27.79,24.64-36.4,39.01Zm190.85-64.15c6.55-7.34,12.41-11.06,17.42-11.06,1.37,0,1.37.27,1.37.87,0,1.64-1.34,5.66-10.33,14.08-5.92,5.54-13.22,11.16-21.75,16.74,3.47-7.69,7.92-14.61,13.29-20.62Zm-36.14,42.47c-1.03,2.58-1.97,5.09-2.81,7.52-6.41,17.61-11.1,29.77-13.96,36.12-2.82,6.28-6.75,13.18-11.68,20.53-10.48,15.71-23.19,28.17-37.81,37.01-14.55,8.8-29.78,13.26-45.27,13.26-7.51,0-14.39-1.19-20.48-3.55,6.09-9.61,13.41-18.92,21.79-27.73,4.4,1.76,8.54,2.65,12.33,2.65,13.45,0,27.58-7.07,42-21.02,14.08-13.61,24.12-29.62,29.85-47.61,9.19-6.21,17.92-11.97,26.04-17.19Zm-105.32,78.05c14.2-14.17,36.65-31.87,66.8-52.66l2.54-1.73c-6.11,14.37-14.78,26.99-25.82,37.6-12.52,12.03-24.57,18.13-35.83,18.13-2.67,0-5.24-.45-7.69-1.33Zm47.59-110.67c8.63,0,15.64,2.54,20.85,7.55,5.25,5.06,7.81,11.59,7.81,19.96,0,5.02-.97,11.07-2.88,17.99-35.45,23.16-62.07,43.81-79.16,61.42-3.68-3.63-5.48-7.57-5.48-11.98,0-2.12.45-4.3,1.35-6.51.15,4.97,3.2,7.81,8.44,7.81,3.45,0,6.49-1.21,9.03-3.59,2.57-2.42,3.88-5.34,3.88-8.67,0-6.51-3.81-10.1-10.74-10.1-5.22,0-9.72,2.07-13.36,6.15-3.59,4.01-5.4,8.9-5.4,14.53,0,6.64,2.52,12.49,7.49,17.44-9.44,10.03-16.98,19.48-22.46,28.13-10.48-6.78-15.57-17.5-15.57-32.69,0-24.82,10.6-49.2,31.5-72.47,20.84-23.2,42.62-34.97,64.72-34.97Z"/>
      <path class="cls-71" d="m269.35,158.12l4.91,2.48.74,5.45c.08.62.51,1.14,1.11,1.34.17.06.35.08.52.08.43,0,.86-.17,1.17-.49l3.88-3.9,5.41.98c.63.11,1.25-.14,1.62-.64.37-.5.43-1.18.14-1.73l-2.52-4.89,2.6-4.85c.3-.55.25-1.22-.11-1.73-.36-.51-.98-.78-1.6-.67l-5.43.88-3.8-3.97c-.44-.45-1.09-.62-1.68-.43-.6.19-1.04.7-1.13,1.32l-.84,5.44-4.96,2.39c-.56.27-.92.84-.93,1.47,0,.63.35,1.2.9,1.48Z"/>
      <path class="cls-14" d="m384.71,475.66c.33.53.93.83,1.56.77l13.31-1.31,8.62,10.22c.32.38.78.59,1.26.59.13,0,.26-.02.39-.05.61-.15,1.08-.63,1.21-1.25l2.87-13.06,12.39-5.04c.58-.24.98-.78,1.02-1.41.04-.62-.27-1.22-.81-1.54l-11.54-6.77-.96-13.34c-.04-.63-.44-1.17-1.02-1.41-.57-.23-1.25-.12-1.71.29l-10,8.88-12.98-3.21c-.61-.15-1.25.06-1.65.54s-.5,1.15-.25,1.72l5.36,12.26-7.06,11.36c-.33.53-.33,1.2,0,1.74Zm10.31-12.1c.29-.46.33-1.03.11-1.53l-4.37-9.99,10.58,2.61c.53.13,1.08,0,1.49-.37l8.15-7.24.79,10.87c.04.54.34,1.03.81,1.3l9.41,5.52-10.1,4.11c-.5.2-.87.64-.99,1.17l-2.34,10.65-7.03-8.33c-.32-.37-.78-.59-1.26-.59-.05,0-.11,0-.16,0l-10.85,1.07,5.75-9.26Z"/>
      <path class="cls-28" d="m476.65,316.35c-.56-.27-1.23-.2-1.73.19-.49.39-.72,1.02-.59,1.64l.71,3.34-2.35,2.48c-.43.45-.57,1.11-.35,1.7.22.59.75,1,1.37,1.07l3.39.36,1.63,3c.29.53.84.86,1.45.86.02,0,.04,0,.06,0,.63-.02,1.19-.4,1.44-.98l1.39-3.12,3.36-.62c.62-.11,1.11-.57,1.28-1.17.17-.6-.02-1.25-.48-1.67l-2.54-2.28.44-3.38c.08-.62-.2-1.23-.72-1.58-.52-.35-1.2-.37-1.74-.06l-2.96,1.71-3.08-1.47Z"/>
      <path class="cls-17" d="m466.8,241.39l-.98,3.58c-.17.6.03,1.25.5,1.67.47.41,1.13.53,1.71.29l3.44-1.4,3.1,2.04c.27.18.59.27.9.27.29,0,.58-.08.83-.23.54-.32.85-.91.81-1.54l-.27-3.7,2.9-2.32c.49-.39.71-1.03.58-1.64-.14-.61-.61-1.09-1.22-1.24l-3.6-.89-1.31-3.47c-.22-.59-.76-.99-1.38-1.06-.64-.06-1.23.24-1.56.77l-1.95,3.15-3.71.18c-.63.03-1.18.41-1.43.99-.25.57-.15,1.24.25,1.72l2.4,2.83Z"/>
      <path class="cls-2" d="m149.92,403.61l-3.6-.89-1.31-3.47c-.22-.59-.76-.99-1.38-1.05-.63-.08-1.23.24-1.56.77l-1.96,3.15-3.71.18c-.63.03-1.18.41-1.43.99-.25.57-.15,1.24.25,1.72l2.39,2.83-.98,3.58c-.17.6.03,1.25.5,1.67.47.42,1.13.53,1.71.29l3.44-1.4,3.1,2.03c.27.18.59.27.9.27.29,0,.58-.08.83-.23.54-.32.85-.92.81-1.54l-.27-3.7,2.9-2.32c.49-.39.71-1.03.58-1.64-.14-.61-.61-1.09-1.21-1.24Z"/>
      <polygon class="cls-114" points="326.56 535.83 328.95 536.24 315.3 552.42 318.43 534.41 320.81 534.83 321 533.75 308.57 531.59 308.38 532.66 310.76 533.08 303.9 572.52 301.52 572.1 301.33 573.17 313.76 575.34 313.95 574.27 311.57 573.85 314.89 554.74 319.79 576.39 329.1 578.01 329.28 576.93 326.85 576.51 320.65 549.32 331.33 536.66 333.72 537.07 333.9 536 326.75 534.75 326.56 535.83"/>
      <path class="cls-104" d="m370.05,536.42l-12.62.18.02,1.09,2.42-.03.53,37.91c0,.67-.36,1.24-1.12,1.72-.75.48-1.67.73-2.74.74-1.04.01-1.95-.21-2.71-.67-.76-.46-1.15-1.02-1.16-1.69l-.53-37.91,2.42-.03v-1.09s-12.68.18-12.68.18l.02,1.09,2.47-.03.49,35.26c.02,1.69,1.18,3.12,3.48,4.29,2.29,1.17,5.04,1.74,8.23,1.69,3.23-.04,5.97-.69,8.23-1.93,2.26-1.24,3.38-2.7,3.36-4.39l-.49-35.26,2.42-.03-.02-1.09Z"/>
      <polygon class="cls-10" points="384.59 569.39 384.73 580.36 388.3 579.8 392.1 569.19 391.95 568.23 384.59 569.39"/>
      <polygon class="cls-27" points="421.7 567.13 417.08 551.83 417.07 526.71 419.38 526.01 419.07 524.97 412.21 527.04 412.53 528.09 414.84 527.39 414.97 549.27 403.4 530.85 405.71 530.15 405.4 529.1 393.5 532.7 393.81 533.74 396.13 533.04 409.63 554.09 414.26 569.39 411.94 570.09 412.26 571.13 424.34 567.48 424.02 566.43 421.7 567.13"/>
      <path class="cls-47" d="m447.76,512.06l2.15-1.11-.5-.97-11.22,5.79.5.97,2.15-1.11,17.38,33.69c.31.59.23,1.27-.23,2.04-.46.77-1.17,1.4-2.12,1.89-.93.48-1.84.68-2.73.61-.89-.07-1.49-.4-1.8-.99l-17.38-33.69,2.15-1.11-.5-.97-11.26,5.81.5.97,2.19-1.13,16.17,31.34c.77,1.5,2.45,2.26,5.03,2.29,2.58.03,5.28-.69,8.12-2.16,2.87-1.48,5.04-3.28,6.51-5.39,1.47-2.12,1.82-3.92,1.05-5.42l-16.17-31.34Z"/>
      <polygon class="cls-96" points="475.57 491.68 474.9 490.81 469.17 495.26 469.83 496.12 471.75 494.64 489.04 516.95 462.72 500.26 454.96 506.28 455.62 507.14 457.53 505.66 482.07 537.3 480.15 538.78 480.82 539.64 486.56 535.19 485.89 534.33 483.98 535.81 464.52 510.71 493.94 529.46 498.86 525.65 473.66 493.16 475.57 491.68"/>
      <rect class="cls-59" x="493.2" y="494.12" width="11.24" height="1.44" transform="translate(-203.67 508.74) rotate(-45.9)"/>
      <path class="cls-30" d="m536.77,475.05l-29.02-21.1,1.42-1.96-.88-.64-7.45,10.24.88.64,1.45-2,30.88,22.45c1.16.84,1.16,2.06,0,3.64-1.14,1.56-2.28,1.92-3.44,1.08l-7.86-5.71-4.58,6.29,6,4.36c1.25.91,2.88.88,4.87-.09,2.08-.99,4.04-2.75,5.88-5.28,1.84-2.53,2.92-4.95,3.24-7.26.31-2.2-.16-3.75-1.41-4.66Z"/>
      <polygon class="cls-87" points="560.02 440.27 523.91 423 524.97 420.77 523.99 420.3 518.52 431.73 519.5 432.2 520.57 429.97 537.06 437.86 533.7 444.88 517.21 436.99 518.26 434.81 517.27 434.34 511.83 445.73 512.81 446.2 513.85 444.01 549.97 461.29 548.92 463.47 549.91 463.94 555.35 452.55 554.37 452.08 553.33 454.27 534.68 445.35 538.04 438.33 556.68 447.25 555.62 449.47 556.6 449.94 562.07 438.51 561.09 438.04 560.02 440.27"/>
      <polygon class="cls-4" points="559.09 405.31 570.27 408.29 568.65 414.39 548.68 409.07 551.05 400.17 550 399.89 547.63 408.79 529.97 404.08 531.59 397.98 542.77 400.96 544.77 393.44 532.54 390.18 526.29 413.66 527.34 413.94 527.96 411.6 566.64 421.91 566.02 424.25 567.07 424.53 573.33 401.05 561.1 397.79 559.09 405.31"/>
      <path class="cls-18" d="m178.52,257.85c5.12.05,15.45,4.34,18.82,8.5.5.61,1.19,1,1.92.86.22-.04.44-.12.65-.24.88-.54,1.16-1.68.62-2.57-3.4-5.56-14.67-10.2-22.56-10.24-.98,0-1.72,1.1-1.57,2.12.15,1.02,1.09,1.56,2.12,1.57Z"/>
      <path class="cls-111" d="m568.43,333.91c.21.21.5.32.78.32s.56-.11.78-.32l2.14-2.14c.43-.43.43-1.12,0-1.55-.43-.43-1.12-.43-1.55,0l-2.14,2.14c-.43.43-.43,1.12,0,1.55Z"/>
      <path class="cls-93" d="m554.58,333.76c.21.21.5.32.78.32s.56-.11.78-.32c.43-.43.43-1.12,0-1.55l-2.14-2.14c-.43-.43-1.12-.43-1.55,0-.43.43-.43,1.12,0,1.55l2.14,2.14Z"/>
      <path class="cls-26" d="m571.35,350.07c.28,0,.56-.11.78-.32.43-.43.43-1.12,0-1.55l-2.14-2.14c-.43-.43-1.12-.43-1.55,0-.43.43-.43,1.12,0,1.55l2.14,2.14c.21.21.5.32.78.32Z"/>
      <path class="cls-51" d="m554,349.89l2.14-2.14c.43-.43.43-1.12,0-1.55-.43-.43-1.12-.43-1.55,0l-2.14,2.14c-.43.43-.43,1.12,0,1.55.21.21.49.32.78.32s.56-.11.78-.32Z"/>
      <path class="cls-9" d="m578.95,338.97c-12.32-.93-12.5-1.75-14.66-11.83-.26-1.21-.54-2.54-.88-4-.14-.63-.71-1.06-1.38-1.02-.65.05-1.17.56-1.22,1.21-1.06,13.15-2.67,14.74-15.61,15.52-.69.04-1.23.61-1.24,1.3-.01.69.51,1.27,1.2,1.33,10.38.9,14.83,3.15,15.53,14.71.04.7.62,1.24,1.31,1.24h.05c.71-.03,1.28-.62,1.27-1.33-.17-12.62,7.96-14.1,15.6-14.49.69-.04,1.24-.6,1.25-1.3,0-.69-.53-1.28-1.22-1.33Zm-17.04,9.3c-1.52-4.22-4.21-6.54-8.09-7.88,5.09-1.28,7.41-3.86,8.63-9.41,1.35,5.57,2.76,8.09,7.7,9.42-3.33,1.2-6.55,3.47-8.24,7.87Z"/>
      <path class="cls-63" d="m215.45,208.58c.28,0,.56-.11.78-.32l2.14-2.14c.43-.43.43-1.12,0-1.55s-1.12-.43-1.55,0l-2.14,2.14c-.43.43-.43,1.12,0,1.55.21.21.5.32.78.32Z"/>
      <path class="cls-108" d="m200.83,208.12c.21.21.5.32.78.32s.56-.11.78-.32c.43-.43.43-1.12,0-1.55l-2.14-2.14c-.43-.43-1.12-.43-1.55,0-.43.43-.43,1.12,0,1.55l2.14,2.14Z"/>
      <path class="cls-1" d="m214.67,220.41c-.43.43-.43,1.12,0,1.55l2.14,2.14c.21.21.5.32.78.32s.56-.11.78-.32c.43-.43.43-1.12,0-1.55l-2.14-2.14c-.43-.43-1.12-.43-1.55,0Z"/>
      <path class="cls-53" d="m200.83,220.56l-2.14,2.14c-.43.43-.43,1.12,0,1.55.21.21.5.32.78.32s.56-.11.78-.32l2.14-2.14c.43-.43.43-1.12,0-1.55-.43-.43-1.12-.43-1.55,0Z"/>
      <path class="cls-73" d="m191.41,215.82c10.38.9,14.83,3.14,15.53,14.71.04.7.62,1.24,1.31,1.24.01,0,.03,0,.05,0,.72-.03,1.28-.62,1.27-1.33-.16-12.62,7.97-14.1,15.6-14.49.69-.04,1.24-.6,1.25-1.3,0-.7-.53-1.28-1.22-1.33-12.32-.93-12.5-1.75-14.66-11.83-.26-1.21-.54-2.54-.88-4-.14-.63-.7-1.08-1.38-1.02-.65.05-1.17.56-1.22,1.21-1.06,13.15-2.67,14.75-15.62,15.52-.69.04-1.23.61-1.24,1.3-.01.69.51,1.27,1.2,1.33Zm17.29-10.49c1.35,5.57,2.76,8.09,7.7,9.42-3.33,1.2-6.55,3.47-8.24,7.87-1.52-4.22-4.21-6.54-8.09-7.88,5.1-1.28,7.41-3.86,8.63-9.41Z"/>
      <path class="cls-44" d="m345.03,468.15l1.55-1.55c.43-.43.43-1.12,0-1.55-.43-.42-1.12-.43-1.55,0l-1.55,1.55c-.43.43-.43,1.12,0,1.55.21.21.49.32.77.32s.56-.11.78-.32Z"/>
      <path class="cls-38" d="m334.21,468.37c.28,0,.56-.11.78-.32.43-.43.43-1.12,0-1.55l-1.55-1.55c-.43-.43-1.12-.43-1.55,0s-.43,1.12,0,1.55l1.56,1.55c.21.21.49.32.77.32Z"/>
      <path class="cls-19" d="m343.48,476.54c-.43.43-.43,1.12,0,1.55l1.55,1.55c.21.22.5.32.78.32s.56-.11.77-.32c.43-.43.43-1.12,0-1.55l-1.55-1.55c-.43-.43-1.12-.43-1.55,0Z"/>
      <path class="cls-61" d="m333.44,476.64l-1.55,1.55c-.43.43-.43,1.12,0,1.55.21.22.5.32.78.32s.56-.11.77-.32l1.55-1.55c.43-.43.43-1.12,0-1.55-.43-.43-1.12-.43-1.55,0Z"/>
      <path class="cls-100" d="m352.56,472.58c0-.69-.53-1.28-1.22-1.33-8.67-.65-8.76-1.08-10.3-8.29-.19-.88-.4-1.85-.64-2.91-.14-.63-.69-1.08-1.38-1.02-.65.05-1.17.56-1.22,1.21-.75,9.35-1.78,10.37-10.98,10.92-.69.04-1.23.61-1.24,1.3-.01.69.51,1.27,1.2,1.33,7.65.66,10.45,2.32,10.93,10.33.04.7.62,1.24,1.31,1.24h.05c.72-.03,1.28-.62,1.27-1.33-.1-7.94,4.31-9.8,10.96-10.13.69-.04,1.24-.6,1.25-1.3Zm-13.58,4.79c-1.02-2.3-2.58-3.74-4.7-4.67,2.73-.91,4.21-2.51,5.09-5.42.84,2.87,1.91,4.46,4.5,5.4-1.94.87-3.74,2.31-4.89,4.7Z"/>
      <path class="cls-101" d="m484.63,383.07c.21.21.5.32.78.32s.56-.11.78-.32l7.99-7.99c.43-.43.43-1.12,0-1.55-.43-.43-1.12-.43-1.55,0l-7.99,7.99c-.43.43-.43,1.12,0,1.55Z"/>
      <path class="cls-41" d="m489.21,394.8l-3.07,3.07c-.43.43-.43,1.12,0,1.55.21.21.5.32.78.32s.56-.11.78-.32l3.07-3.07c.43-.43.43-1.12,0-1.55-.43-.43-1.12-.43-1.55,0Z"/>
      <path class="cls-7" d="m467.42,408.26c-.87-1.08-1.81-2.08-2.87-2.95l17.33-17.53c.43-.43.42-1.13,0-1.55-.43-.43-1.13-.42-1.55,0l-17.58,17.78c-1.21-.79-2.48-1.51-3.91-2.09,1.64-1.68,2.68-2.74,3.46-3.54.74-.75,1.24-1.26,1.77-1.81.42-.44.41-1.13-.03-1.55-.43-.42-1.13-.41-1.55.03-.53.55-1.03,1.06-1.76,1.8-.91.92-2.18,2.22-4.32,4.42-6.66-.99-11.9.35-16.47,4.19-5.01,4.22-7.54,10.58-6.79,17.04.76,6.48,4.69,11.95,10.78,15.01,2.78,1.4,5.62,2.09,8.45,2.09,4.18,0,8.33-1.52,12.14-4.52,5.66-4.45,8.1-12.12,6.69-19,.03-.02.06-.03.09-.06l12.91-12.7c.43-.42.44-1.12.01-1.55-.42-.44-1.12-.44-1.55-.01l-12.13,11.94c-.45-1.28-1.04-2.51-1.78-3.67l31.71-31.71c.43-.43.43-1.12,0-1.55-.43-.43-1.12-.43-1.55,0l-31.48,31.48Zm-4.26,25.11c-5.77,4.54-12.08,5.3-18.25,2.19-5.42-2.73-8.91-7.58-9.58-13.31-.67-5.72,1.58-11.36,6.02-15.1,3.19-2.69,6.77-3.99,11.07-3.99,1.33,0,2.72.12,4.19.37.09.02.18.02.27.01,4.29,1.49,7.4,3.81,9.78,7.27,4.79,6.97,3.18,17.3-3.5,22.55Z"/>
      <path class="cls-22" d="m458.96,406.37c-.55-.26-1.2-.02-1.46.53-.26.55-.02,1.2.53,1.46,3.93,1.83,6.35,5.06,7.38,9.89.11.52.57.87,1.07.87.08,0,.15,0,.23-.02.59-.13.97-.71.84-1.3-1.19-5.55-4.01-9.28-8.6-11.42Z"/>
      <path class="cls-85" d="m454.44,405.17c-1.45-.38-2.89-.41-4.55-.09-.6.12-.98.69-.87,1.29.11.6.7.98,1.29.87,1.34-.26,2.44-.24,3.57.06.09.03.19.04.28.04.49,0,.93-.33,1.06-.82.15-.59-.2-1.19-.78-1.34Z"/>
      <path class="cls-42" d="m466.98,393.5l3.45-3.52c.42-.43.42-1.13-.02-1.55-.43-.42-1.12-.42-1.55.02l-3.45,3.52c-.42.43-.42,1.13.02,1.55.21.21.49.31.77.31s.57-.11.78-.33Z"/>
      <path class="cls-50" d="m466.69,420.83c-.59-.12-1.17.28-1.28.87l-.62,3.28c-.11.6.28,1.17.87,1.28.07.01.14.02.21.02.52,0,.98-.37,1.08-.89l.62-3.28c.11-.6-.28-1.17-.87-1.28Z"/>
      <path class="cls-103" d="m496.57,372.2c.28,0,.56-.11.78-.32l1.85-1.85c.43-.43.43-1.12,0-1.55-.43-.43-1.12-.43-1.55,0l-1.85,1.85c-.43.43-.43,1.12,0,1.55.21.21.5.32.78.32Z"/>
      <path class="cls-56" d="m539.39,288.33c.11.05.2.08.32.08.66,0,1.95-1.34,10.91-10.67.42-.44.41-1.13-.03-1.55-.44-.42-1.13-.41-1.55.03-3.74,3.89-9.47,9.83-9.93,10.24l.69.85-.41,1.02Z"/>
      <path class="cls-16" d="m558.84,278.08c.29,0,.58-.12.8-.35l9.58-10.19c.42-.44.39-1.14-.05-1.55s-1.13-.4-1.55.05l-9.58,10.19c-.42.44-.39,1.14.05,1.55.21.2.48.3.75.3Z"/>
      <path class="cls-25" d="m514.67,326.45c1.38.41,2.78.62,4.15.62,2.41,0,4.76-.62,6.88-1.85,3.49-2.02,5.95-5.43,6.92-9.59.87-3.75.49-7.31-1-9.73l3.52-3.53c3.47-3.48,6.95-6.96,10.45-10.41.79-.78,1.54-1.55,2.31-2.34.77-.8,1.56-1.61,2.44-2.48.43-.42.44-1.12,0-1.55-.43-.43-1.12-.43-1.55,0-.89.88-1.69,1.71-2.47,2.51-.76.78-1.49,1.54-2.27,2.31-3.51,3.45-6.99,6.94-10.46,10.43l-3.41,3.42c-.29-.28-.59-.56-.87-.84-.66-.66-1.35-1.33-2.1-1.94l6.86-6.86c.43-.43.43-1.12,0-1.55-.43-.43-1.12-.43-1.55,0l-7.15,7.15c-.45-.25-.92-.48-1.44-.66-4.01-1.41-8.14-1.23-11.65.49-3.36,1.64-5.88,4.57-7.11,8.24-1.26,3.79-1.02,7.55.71,10.89,1.8,3.46,5.08,6.19,8.79,7.3Z"/>
      <path class="cls-79" d="m559.08,268.93c.3,0,.59-.12.81-.35l2.44-2.66c.41-.45.38-1.14-.07-1.55-.44-.41-1.14-.38-1.55.07l-2.44,2.65c-.41.45-.38,1.14.07,1.55.21.19.48.29.74.29Z"/>
      <path class="cls-48" d="m276.35,527.76c-.61,0-1.1.49-1.1,1.1v8.35c0,.61.49,1.1,1.1,1.1s1.1-.49,1.1-1.1v-8.35c0-.61-.49-1.1-1.1-1.1Z"/>
      <path class="cls-29" d="m287.14,538.54h-8.35c-.61,0-1.1.49-1.1,1.1s.49,1.1,1.1,1.1h8.35c.61,0,1.1-.49,1.1-1.1s-.49-1.1-1.1-1.1Z"/>
      <path class="cls-6" d="m276.35,540.98c-.61,0-1.1.49-1.1,1.1v8.35c0,.61.49,1.1,1.1,1.1s1.1-.49,1.1-1.1v-8.35c0-.61-.49-1.1-1.1-1.1Z"/>
      <path class="cls-107" d="m273.91,538.54h-7.31c-.61,0-1.1.49-1.1,1.1s.49,1.1,1.1,1.1h7.31c.61,0,1.1-.49,1.1-1.1s-.49-1.1-1.1-1.1Z"/>
      <path class="cls-24" d="m339.86,260.3c3.41,0,6.17-2.77,6.17-6.18s-2.77-6.18-6.17-6.18-6.18,2.77-6.18,6.18,2.77,6.18,6.18,6.18Zm0-10.16c2.19,0,3.98,1.79,3.98,3.98s-1.79,3.98-3.98,3.98-3.98-1.79-3.98-3.98,1.79-3.98,3.98-3.98Z"/>
      <path class="cls-43" d="m518.73,220.29c3.41,0,6.18-2.77,6.18-6.18s-2.77-6.18-6.18-6.18-6.17,2.77-6.17,6.18,2.77,6.18,6.17,6.18Zm0-10.16c2.2,0,3.98,1.79,3.98,3.98s-1.79,3.98-3.98,3.98-3.98-1.79-3.98-3.98,1.79-3.98,3.98-3.98Z"/>
      <path class="cls-33" d="m460.2,360.58c0-3.41-2.77-6.18-6.18-6.18s-6.18,2.77-6.18,6.18,2.77,6.18,6.18,6.18,6.18-2.77,6.18-6.18Zm-10.16,0c0-2.2,1.79-3.98,3.98-3.98s3.98,1.79,3.98,3.98-1.79,3.98-3.98,3.98-3.98-1.79-3.98-3.98Z"/>
      <path class="cls-82" d="m185.78,469.02c-3.41,0-6.18,2.77-6.18,6.17s2.77,6.18,6.18,6.18,6.17-2.77,6.17-6.18-2.77-6.17-6.17-6.17Zm0,10.16c-2.2,0-3.98-1.79-3.98-3.98s1.79-3.98,3.98-3.98,3.98,1.79,3.98,3.98-1.79,3.98-3.98,3.98Z"/>
      <path class="cls-58" d="m511.75,263.57c5.06.44,6.8,1.47,7.12,6.69.04.7.62,1.24,1.31,1.24.02,0,.03,0,.05,0,.72-.03,1.28-.62,1.27-1.33-.07-5.13,2.68-6.31,7.13-6.53.69-.04,1.24-.6,1.25-1.3,0-.7-.53-1.28-1.22-1.33-5.63-.42-5.65-.52-6.69-5.36-.13-.6-.27-1.27-.44-2-.15-.63-.65-1.07-1.38-1.02-.65.05-1.16.56-1.22,1.21-.5,6.21-1.04,6.74-7.14,7.11-.69.04-1.23.61-1.24,1.3-.01.69.51,1.27,1.2,1.33Zm8.63-3.69c.47,1.18,1.1,1.99,2.18,2.56-.91.53-1.75,1.28-2.4,2.31-.58-1.01-1.35-1.75-2.29-2.31,1.16-.56,1.95-1.37,2.51-2.56Z"/>
      <path class="cls-88" d="m385.65,259.91c6.56.57,8.97,1.99,9.38,8.85.04.7.62,1.24,1.31,1.24.02,0,.03,0,.05,0,.71-.03,1.28-.62,1.27-1.33-.09-6.82,3.53-8.37,9.4-8.67.69-.04,1.24-.6,1.25-1.3,0-.7-.53-1.28-1.22-1.33-7.43-.56-7.49-.81-8.84-7.1-.16-.77-.35-1.61-.56-2.54-.14-.63-.7-1.08-1.38-1.02-.65.05-1.17.56-1.22,1.21-.65,8.11-1.45,8.89-9.42,9.37-.69.04-1.23.61-1.24,1.3-.01.69.51,1.27,1.2,1.33Zm10.97-5.32c.68,2.14,1.58,3.4,3.5,4.2-1.5.75-2.89,1.9-3.83,3.71-.86-1.74-2.1-2.9-3.71-3.69,2.06-.78,3.28-2.06,4.05-4.22Z"/>
      <path class="cls-39" d="m278.32,290.35c.04.7.62,1.24,1.31,1.24h.05c.72-.03,1.28-.62,1.27-1.33-.07-5.13,2.68-6.3,7.13-6.53.69-.04,1.24-.61,1.25-1.3,0-.69-.53-1.28-1.22-1.33-5.63-.42-5.65-.52-6.69-5.36-.13-.6-.27-1.27-.44-2-.14-.63-.7-1.07-1.38-1.02-.65.05-1.17.56-1.22,1.21-.5,6.21-1.04,6.74-7.14,7.11-.69.04-1.23.61-1.24,1.3-.01.69.51,1.27,1.2,1.33,5.06.44,6.8,1.47,7.12,6.69Zm1.51-10.38c.47,1.18,1.11,1.99,2.18,2.56-.91.54-1.75,1.28-2.4,2.31-.58-1.01-1.35-1.76-2.29-2.31,1.16-.56,1.95-1.37,2.51-2.56Z"/>
      <path class="cls-55" d="m256.73,222.35c1.39.54,2.89,1.08,4.48,1.62.27,3.55,1.42,7,3.4,10.08,3.15,4.9,8.02,8.29,13.71,9.53,1.56.34,3.11.5,4.65.5,7.91,0,15.2-4.35,19.03-11.19,2.83.3,5.61.49,8.1.49,5.13,0,9.01-.81,9.51-3.14.39-1.78-.48-4.11-9.86-7.85-.85-.33-1.8.07-2.14.92-.34.84.07,1.8.92,2.14,5.2,2.07,7,3.45,7.59,4.06-1.51.65-5.97.81-12.66.19.33-.9.62-1.83.83-2.79,2.56-11.75-4.92-23.4-16.67-25.96-5.69-1.24-11.53-.19-16.43,2.96-4.9,3.15-8.29,8.02-9.53,13.71-.21.96-.33,1.92-.41,2.88-6.34-2.22-10.33-4.22-11.44-5.44.78-.3,2.92-.79,8.28-.55.92.09,1.68-.66,1.72-1.57.04-.91-.66-1.68-1.57-1.72-7.81-.36-11.37.56-11.91,3.05-.4,1.82.53,4.21,10.41,8.07Z"/>
      <path class="cls-76" d="m560.3,225.59c-70.99-113.57-221.14-148.21-334.71-77.22-113.57,70.99-148.21,221.14-77.22,334.71,46.03,73.64,125.32,114.09,206.36,114.09,43.95,0,88.42-11.9,128.35-36.87,113.57-70.99,148.21-221.14,77.22-334.71Zm-98.65-81.71c4.54,2.31,9.02,4.77,13.42,7.38-2.23,1.28-4.67,1.96-7.02,1.86-2.89-.1-5.33-1.28-6.88-3.31-.17-.23-.31-.48-.46-.72-.05-.09-.1-.18-.15-.27-.06-1.65.36-3.33,1.09-4.93Zm-110.62-25.75c.15,4.24-1.13,8.24-3.7,11.02l-.2.06c-3.2.78-6.61-.04-9.58-2.29-2.49-1.89-4.38-4.62-5.54-7.79,6.34-.59,12.68-.92,19.02-1Zm-27.08,1.89c.04.22.07.43.12.65,2.01,8.36,8.65,14.15,15.58,14.15.96,0,1.92-.11,2.88-.34,2.32-.56,4.45-1.8,6.19-3.6,0,0,0,0,0,0,3.09-3.2,4.64-7.86,4.48-12.78.25,0,.5-.01.74-.01,26.11,0,52.02,4.34,76.64,12.72l-7.92,15.71c-.27.54-.06,1.2.48,1.47.16.08.33.12.5.12.4,0,.79-.22.98-.6l8.06-15.99c3.39,1.19,6.75,2.47,10.08,3.81l-16.28,12.67c-.48.37-.57,1.06-.19,1.54.22.28.54.42.87.42.24,0,.47-.08.67-.23l17.28-13.45c4.92,2.04,9.78,4.24,14.56,6.61-.95,2.03-1.42,4.2-1.29,6.32h0s0,0,0,0c.13,2.1.85,4.06,2.07,5.66,2.11,2.77,5.44,4.18,9.04,4.17,3.2,0,6.62-1.11,9.58-3.36.48-.37.9-.78,1.33-1.19,7.11,4.47,14,9.36,20.65,14.61-1.18,2.13-2.4,4.23-3.74,6.28-.72,1.1.34,2.36,1.95,4.27.49.58,1.26,1.5,1.55,1.99-1.11,1.65-1.92,3.23-2.7,4.77-1.15,2.26-2.24,4.39-4.04,6.32-.57.25-3.24-.05-4.84-.23-3.6-.41-5.51-.58-6.41.28-7.36,7.04-15.71,12.9-24.83,17.43-1.27.63-1.52,2.3-1.76,3.92-.11.72-.31,2.06-.56,2.28-7.03,3.06-13.53,5.7-21.88,7.09-.47-.25-1.62-1.12-2.39-1.71-2.2-1.67-2.93-2.17-3.59-2.17-.07,0-.13,0-.2.02-10.92,1.54-22,1.27-32.93-.83-8.77-1.68-17.25-4.51-25.2-8.4-.96-.47-2.28.15-5.82,2.05-1.34.72-3.33,1.79-4.03,1.94-2.6-1.37-4.29-1.79-5.66-2.12-1.76-.43-3.04-.75-5.66-2.9-.21-.86-.23-4.08-.25-6.25-.04-5.97-.16-7.04-.82-7.63-7.95-7.04-14.7-15.27-20.07-24.45-.84-1.43-3.26-1.49-6.06-1.57-1.43-.04-3.84-.1-4.23-.47-2.7-5.35-4.8-13.09-6.48-19.3l-.47-1.71c.33-.45,1.64-1.29,2.44-1.81,2.04-1.31,3.8-2.45,3.46-3.98-1.52-6.82-2.25-13.72-2.31-20.65,3.47-.6,6.95-1.11,10.43-1.55Zm155.63,434.7c-38.86,24.29-82.11,35.87-124.87,35.86-78.83,0-155.99-39.36-200.77-111-33.46-53.53-44.07-116.87-29.88-178.38,14.19-61.51,51.48-113.8,105.01-147.26,25.94-16.22,53.85-26.74,82.26-31.96.08,6.88.81,13.75,2.31,20.54-.32.45-1.65,1.31-2.47,1.84-2.07,1.33-3.85,2.48-3.42,4.04l.52,1.9c1.71,6.31,3.84,14.17,6.64,19.72.78,1.53,3.26,1.6,6.14,1.68,1.43.04,3.82.1,4.22.48,5.46,9.32,12.3,17.68,20.35,24.84.2.84.23,4.01.24,6.14.05,6.11.17,7.2.87,7.78,3.13,2.59,4.79,3,6.71,3.48,1.35.33,2.87.71,5.34,2.03.96.51,2.31-.11,5.91-2.04,1.34-.72,3.32-1.78,4.01-1.92,8.07,3.93,16.67,6.79,25.57,8.5,11.1,2.13,22.34,2.42,33.43.88.47.25,1.6,1.11,2.37,1.7,2.2,1.67,2.95,2.19,3.62,2.19.08,0,.15,0,.23-.02,8.71-1.42,15.41-4.14,22.63-7.29,1.35-.59,1.6-2.3,1.85-3.96.11-.72.31-2.06.56-2.28,9.32-4.62,17.86-10.62,25.26-17.73.56-.24,3.08.04,4.75.23,3.69.42,5.66.59,6.55-.34,2.15-2.26,3.36-4.64,4.53-6.94.81-1.58,1.64-3.22,2.79-4.87.77-1.1-.3-2.38-1.92-4.3-.5-.59-1.27-1.51-1.56-2,1.22-1.88,2.35-3.8,3.43-5.74,19.94,16.08,37.59,35.67,51.91,58.58,69.07,110.49,35.36,256.57-75.13,325.64Z"/>
      <path class="cls-105" d="m396.96,207.02c-4.48-.86-8.65-.81-10.89.13,0,0,0,0,0,0,0,0,0,0,0,0-1.41.6-1.84,1.44-1.96,2.04-.59,3.08,5.36,5.67,11.13,6.78,2.12.41,4.18.61,6.02.61.79,0,1.53-.04,2.22-.12,3.46-.39,4.42-1.67,4.61-2.67.12-.6.03-1.55-1.07-2.62-1.73-1.7-5.59-3.29-10.07-4.16Zm6.48,4.42c-.41.04-.85.06-1.33.07-.12,0-.26,0-.38,0-.38,0-.77,0-1.18-.03-.2,0-.4-.02-.6-.04-.39-.03-.79-.07-1.21-.11-.2-.02-.4-.04-.61-.07-.62-.08-1.26-.18-1.93-.31-.67-.13-1.3-.28-1.91-.43-.2-.05-.39-.1-.58-.16-.41-.11-.8-.23-1.18-.35-.19-.06-.37-.12-.55-.18-.4-.14-.79-.28-1.15-.42-.1-.04-.22-.08-.32-.12-.44-.18-.85-.37-1.22-.56-.03-.01-.05-.03-.08-.04,1.83-.17,4.37-.08,7.32.49,2.96.57,5.35,1.42,6.98,2.26-.03,0-.06,0-.09.01Z"/>
      <path class="cls-15" d="m365.7,181.23c5,3.31,10.27,4.98,14.7,4.98,3.98,0,7.29-1.36,9.11-4.11.62-.93,1.02-2.02,1.22-3.23.92-5.76-3.74-13.3-11.34-18.33-7.11-4.7-15.04-6.21-20.21-3.85-1.55.71-2.76,1.71-3.59,2.97-3.83,5.8.61,15.27,10.12,21.56Zm-5-21.15c-.03-.3-.03-.59-.03-.88,0-.25,0-.5.03-.74,4.45-1.64,11.37-.11,17.48,3.93,6.61,4.37,10.8,10.65,10.45,15.51-.22.08-.44.16-.67.22-.28.08-.55.17-.85.23-.34.07-.7.11-1.06.14-.31.03-.61.07-.93.09-.38.01-.78,0-1.17-.02-.33-.01-.65-.01-.98-.05-.42-.04-.85-.12-1.28-.19-.33-.05-.66-.1-1-.17-.45-.1-.91-.23-1.38-.36-.33-.09-.66-.17-.99-.27-.49-.16-.99-.36-1.48-.55-.31-.12-.62-.22-.93-.36-.55-.24-1.1-.52-1.65-.8-.26-.13-.51-.24-.77-.37-.8-.43-1.6-.91-2.39-1.43-.85-.56-1.65-1.15-2.41-1.77-.26-.21-.49-.44-.74-.65-.48-.42-.97-.83-1.41-1.26-.27-.27-.5-.54-.76-.81-.38-.4-.76-.8-1.1-1.2-.25-.29-.45-.6-.67-.89-.3-.39-.6-.78-.86-1.18-.2-.31-.37-.62-.55-.94-.22-.39-.46-.77-.64-1.16-.15-.32-.27-.63-.39-.94-.15-.38-.31-.76-.43-1.13-.1-.31-.15-.62-.22-.93-.08-.36-.16-.73-.2-1.08Z"/>
      <path class="cls-90" d="m463.81,200.41c1.47,0,3.34-.61,5.54-1.82,3.32-1.83,7.09-4.86,10.61-8.53,5.9-6.14,11.2-14.35,9.25-18.17-.03-.08-.06-.16-.11-.24,0,0,0,0,0,0,0,0,0,0,0,0,0,0,0,0,0,0,0,0,0,0,0,0-.12-.19-.25-.4-.45-.59-1.52-1.46-4.29-1.14-8.03.92-3.32,1.83-7.09,4.86-10.61,8.53-4.17,4.34-7.4,8.96-8.85,12.68,0,0,0,0,0,0-1.17,2.97-1.11,5.1.17,6.33.62.6,1.46.9,2.49.9Zm7.78-18.39c3.37-3.51,6.95-6.4,10.09-8.12,2.66-1.46,4.31-1.71,5.16-1.37-.05.12-.1.24-.16.36-.09.18-.18.37-.27.55-.13.26-.27.52-.42.79-.11.2-.22.39-.33.59-.16.27-.32.55-.49.82-.13.2-.25.41-.39.62-.18.28-.37.56-.57.85-.14.21-.29.42-.44.64-.21.29-.42.58-.64.87-.16.21-.31.42-.47.63-.23.3-.48.6-.72.91-.17.2-.33.41-.5.61-.27.32-.55.65-.84.97-.16.18-.31.36-.47.54-.45.5-.91,1-1.38,1.49-3.37,3.51-6.95,6.4-10.09,8.12-.62.34-1.17.6-1.68.82-.07.03-.14.06-.21.09-.43.18-.8.29-1.16.39-.3.08-.59.14-.84.17,0,0,0,0,0,0-.29.04-.51.03-.73.02-.21-.02-.39-.06-.55-.13,1.47-3.3,4.44-7.44,8.09-11.25Z"/>
      <path class="cls-40" d="m430.93,199.68c.45,0,.91-.02,1.37-.05,2.75-.21,5.31-1.05,7.2-2.37,2.06-1.43,3.12-3.28,2.97-5.19-.07-.97-.46-1.88-1.14-2.71,0,0,0,0,0,0-1.88-2.27-5.84-3.51-10.06-3.19-4.53.35-8.43,2.44-9.72,5.2,0,0,0,0,0,0-.36.77-.51,1.56-.45,2.35.27,3.48,4.48,5.96,9.83,5.96Zm.5-11.32c3.12-.24,6.06.5,7.67,1.86-.02.02-.03.05-.04.07-.06.08-.13.15-.2.23-.13.15-.26.29-.41.43-.09.09-.2.17-.3.25-.15.12-.3.24-.47.36-.12.08-.24.16-.37.24-.17.11-.35.21-.53.31-.14.07-.28.15-.43.21-.2.09-.4.18-.61.26-.15.06-.3.12-.46.18-.22.08-.46.15-.69.22-.16.05-.31.1-.47.14-.26.07-.54.12-.81.18-.14.03-.28.06-.43.09-.42.07-.86.13-1.29.16-.42.03-.83.04-1.24.04-.12,0-.23,0-.35-.01-.29,0-.58-.02-.86-.04-.14-.01-.27-.03-.4-.05-.26-.03-.51-.06-.75-.11-.14-.02-.27-.05-.4-.08-.23-.05-.46-.1-.69-.16-.13-.04-.26-.07-.38-.11-.21-.07-.42-.14-.62-.22-.12-.05-.24-.09-.35-.14-.2-.09-.38-.18-.56-.27-.1-.05-.2-.11-.3-.16-.18-.11-.33-.22-.49-.34-.08-.06-.17-.11-.24-.18-.02-.01-.03-.03-.05-.04,1.27-1.73,4.21-3.05,7.51-3.3Z"/>
      <path class="cls-113" d="m331.37,167.34c2.48,3.26,5.21,6.03,7.7,7.8,2.14,1.52,3.69,2.02,4.81,2.02.78,0,1.35-.24,1.75-.55,1.09-.83,1.42-2.35.97-4.54-.65-3.16-2.93-7.53-6.08-11.68-3.08-4.05-6.47-7.27-9.33-8.83-2.12-1.16-3.78-1.32-4.93-.45-.99.75-1.86,2.53-.34,6.71,1.04,2.87,2.98,6.25,5.45,9.51Zm7.4-5.62c2.04,2.68,3.68,5.42,4.7,7.81-.06-.05-.12-.1-.18-.15-.38-.32-.77-.66-1.17-1.03-.06-.06-.12-.11-.19-.17-.46-.44-.92-.9-1.39-1.39-.11-.11-.21-.23-.32-.35-.36-.39-.73-.8-1.09-1.22-.12-.15-.25-.29-.37-.44-.45-.54-.91-1.1-1.34-1.68-.46-.6-.89-1.21-1.3-1.81-.12-.17-.23-.34-.35-.52-.31-.47-.61-.93-.89-1.39-.09-.15-.18-.29-.27-.44-.35-.59-.68-1.17-.97-1.74-.05-.1-.09-.19-.14-.29-.24-.48-.46-.94-.66-1.4-.03-.07-.06-.15-.09-.22,1.96,1.61,4.09,3.86,6.04,6.43Z"/>
      <path class="cls-13" d="m368.38,204.49l-7.24,5.3c-.49.36-.6,1.04-.24,1.53.21.29.55.45.89.45.22,0,.45-.07.65-.21l7.23-5.3c.49-.36.6-1.04.24-1.53-.36-.49-1.05-.6-1.53-.24Z"/>
      <path class="cls-74" d="m362.6,201.51c-.53-.27-1.2-.04-1.47.5l-3.07,6.25c-.27.54-.04,1.2.5,1.47.15.08.32.11.48.11.41,0,.8-.23.99-.61l3.07-6.25c.27-.54.04-1.2-.5-1.47Z"/>
      <path class="cls-83" d="m353.94,208.04c.11.03.22.05.32.05.47,0,.9-.3,1.05-.78l3.35-10.95c.18-.58-.15-1.19-.73-1.37-.59-.18-1.19.15-1.37.73l-3.35,10.95c-.18.58.15,1.19.73,1.37Z"/>
      <path class="cls-5" d="m350.76,204.84s.05,0,.08,0c.57,0,1.05-.44,1.09-1.02l.81-11.51c.04-.6-.41-1.13-1.02-1.17-.56-.05-1.13.41-1.17,1.02l-.81,11.51c-.04.6.41,1.13,1.02,1.17Z"/>
      <path class="cls-106" d="m457.73,203.58c-.57-.22-1.2.06-1.42.63l-3.7,9.55c-.22.57.06,1.2.63,1.42.13.05.26.07.4.07.44,0,.86-.27,1.02-.7l3.7-9.55c.22-.57-.06-1.2-.63-1.42Z"/>
      <path class="cls-72" d="m446.45,203.48c-.6.09-1.01.65-.92,1.25l1.58,10.41c.08.54.55.93,1.08.93.06,0,.11,0,.17-.01.6-.09,1.01-.65.92-1.25l-1.58-10.41c-.09-.6-.65-1-1.25-.92Z"/>
      <path class="cls-98" d="m440.48,205.94c-.2-.57-.83-.87-1.4-.68-.57.2-.88.82-.68,1.4l3.2,9.24c.16.45.58.74,1.04.74.12,0,.24-.02.36-.06.57-.2.88-.82.68-1.4l-3.2-9.24Z"/>
      <path class="cls-34" d="m430.07,205.59c-.38-.47-1.07-.55-1.54-.17-.47.38-.55,1.07-.17,1.54l8.74,10.98c.22.27.54.41.86.41.24,0,.48-.08.68-.24.47-.38.55-1.07.17-1.54l-8.74-10.98Z"/>
      <path class="cls-109" d="m433.32,218.55l-9.52-6.3c-.5-.33-1.19-.2-1.52.31-.33.51-.2,1.19.31,1.52l9.52,6.3c.18.12.4.18.6.18.36,0,.71-.17.92-.49.33-.51.2-1.19-.31-1.52Z"/>
      <path class="cls-112" d="m418.5,158.4c-.56-.21-1.2.07-1.42.63l-11.21,29.26c-.22.57.07,1.2.63,1.42.13.05.26.07.39.07.44,0,.86-.27,1.02-.71l11.21-29.26c.22-.57-.07-1.2-.63-1.42Z"/>
      <path class="cls-23" d="m368.57,146.29l44.76,8.18c.07.01.13.02.2.02.52,0,.98-.37,1.08-.9.11-.6-.29-1.17-.88-1.28l-44.76-8.18c-.59-.12-1.17.28-1.28.88-.11.6.29,1.17.88,1.28Z"/>
      <path class="cls-21" d="m415.54,147.78c.2.14.42.21.64.21.34,0,.68-.16.89-.45.36-.49.24-1.18-.25-1.53l-24.84-17.98c-.49-.36-1.18-.25-1.53.25-.36.49-.24,1.18.25,1.53l24.84,17.98Z"/>
      <path class="cls-20" d="m427.04,156.31l31.55,19.51c.18.11.38.16.58.16.37,0,.73-.18.93-.52.32-.52.16-1.19-.36-1.51l-31.55-19.51c-.52-.32-1.19-.16-1.51.36-.32.52-.16,1.19.36,1.51Z"/>
      <path class="cls-11" d="m439.64,176.56c.22.24.51.36.81.36.26,0,.53-.09.74-.28.45-.41.49-1.1.08-1.55l-15.25-16.92c-.41-.45-1.1-.49-1.55-.08-.45.41-.49,1.1-.08,1.55l15.25,16.92Z"/>
      <path class="cls-46" d="m422.72,177.52s.03,0,.04,0c.6-.02,1.08-.53,1.06-1.13l-.54-15.81c-.02-.61-.55-1.15-1.14-1.06-.6.02-1.08.53-1.06,1.13l.54,15.81c.02.59.51,1.06,1.1,1.06Z"/>
      <path class="cls-12" d="m398.05,174.7l17.24-16.81c.43-.42.44-1.12.02-1.55-.43-.44-1.12-.44-1.55-.02l-17.24,16.81c-.44.42-.44,1.12-.02,1.55.22.22.5.33.79.33s.55-.1.77-.31Z"/>
      <path class="cls-37" d="m386.61,141.18l26.85,10.08c.13.05.26.07.39.07.44,0,.86-.27,1.03-.71.21-.57-.07-1.2-.64-1.41l-26.85-10.08c-.56-.21-1.2.07-1.41.64-.21.57.07,1.2.64,1.41Z"/>
      <path class="cls-95" d="m419.55,146.98c.07,0,.15,0,.22-.02.59-.12.98-.7.86-1.29l-3.02-15.04c-.12-.59-.71-.98-1.29-.86-.59.12-.98.7-.86,1.29l3.02,15.04c.11.52.56.88,1.07.88Z"/>
      <path class="cls-99" d="m428.5,153.06h0l18.69-.14c.61,0,1.09-.5,1.09-1.11,0-.61-.43-1.06-1.11-1.09l-18.69.14c-.61,0-1.09.5-1.09,1.11,0,.6.5,1.09,1.1,1.09Z"/>
      <path class="cls-67" d="m492.42,179.85l3.74,2.09c.17.09.35.14.54.14.38,0,.76-.2.96-.56.3-.53.11-1.2-.42-1.49l-3.74-2.09c-.53-.29-1.2-.11-1.49.42-.3.53-.11,1.2.42,1.49Z"/>
      <path class="cls-52" d="m488.87,183.52c-.11.59.28,1.17.87,1.28l4,.77c.07.01.14.02.21.02.51,0,.98-.37,1.08-.89.11-.59-.28-1.17-.87-1.28l-4-.77c-.58-.11-1.17.28-1.28.87Z"/>
      <path class="cls-94" d="m492.54,187.54l-6.8-1.31c-.6-.11-1.17.28-1.29.87-.11.59.28,1.17.87,1.28l6.8,1.31c.07.01.14.02.21.02.51,0,.98-.37,1.08-.89.11-.59-.28-1.17-.87-1.28Z"/>
      <path class="cls-68" d="m326.75,165.15l-7.51-.82c-.59-.07-1.14.37-1.21.97-.07.6.37,1.14.97,1.21l7.51.82s.08,0,.12,0c.55,0,1.03-.42,1.09-.98.07-.6-.37-1.14-.97-1.21Z"/>
      <path class="cls-49" d="m315.92,160.4c.08.54.55.93,1.08.93.06,0,.11,0,.17-.01l7.15-1.1c.6-.09,1.01-.65.92-1.25s-.65-1-1.25-.92l-7.15,1.1c-.6.09-1.01.65-.92,1.25Z"/>
      <path class="cls-110" d="m317.21,157.03c.29,0,.57-.11.79-.34l3.37-3.5c.42-.44.41-1.13-.03-1.55-.43-.42-1.13-.41-1.55.03l-3.37,3.5c-.42.44-.41,1.13.03,1.55.21.2.49.31.76.31Z"/>
      <path class="cls-84" d="m312.72,150.53c.21.29.55.45.88.45.23,0,.45-.07.65-.21l7.12-5.24c.49-.36.59-1.05.23-1.53-.36-.49-1.05-.59-1.53-.23l-7.12,5.24c-.49.36-.59,1.05-.23,1.53Z"/>
    </g>
    <path class="cls-69" d="m167.21,303.08c-.21.03-.41.05-.61.06-.19,0-.37,0-.55-.03-.37-.06-.7-.19-1-.43-.1-.08-.19-.16-.28-.26-.09-.1-.18-.2-.26-.32-.77-1.06-1.56-2.12-2.33-3.18s-1.55-2.11-2.33-3.18c-.47-1.2-1-2.38-1.49-3.56-.25-.59-.49-1.19-.71-1.79-.11-.3-.2-.61-.3-.91-.1-.3-.21-.6-.3-.91-.04-.13-.06-.26-.1-.4-.18-.66-.35-1.32-.5-1.97-.17-.79-.32-1.57-.45-2.35-.02-.1-.02-.2-.04-.3-.16-1.05-.26-2.08-.32-3.11-.02-.41-.06-.81-.07-1.22-.06-2.44.16-4.83.68-7.17.39-1.75.96-3.48,1.7-5.16.25-.56.52-1.12.81-1.67.43-.83.92-1.65,1.44-2.47.23-.36.48-.72.73-1.07.21-.3.44-.6.66-.89.03-.04.06-.09.1-.13,0,0,0,0,0,0,.08-.1.15-.21.23-.31,6.55-8.29,19.72-12.33,32.33-5.45,9.68,5.29,14.1,14.13,14.97,25.46.05.72-.16,1.61-.55,2.25h0s0,0,0,0c-1.66,1.67-3.35,3.31-5.11,4.87,0,0,0,0,0,0,0,0,0,0,0,0,0,0,0,0,0,0-.94.83-2.17,1.49-3.37,1.85-1.19.35-2.35.75-3.47,1.21-1.12.47-2.2.99-3.23,1.6-1.55.9-3,1.98-4.34,3.24-.45.42-.88.87-1.3,1.34-.21.23-.47.43-.75.61-.28.17-.58.32-.88.44-1.54.62-3.09,1.2-4.65,1.73-2.34.8-4.71,1.5-7.11,2.1-.98.24-1.96.46-2.95.67-1.44.31-2.88.59-4.33.82Z"/>
    <g>
      <path class="cls-35" d="m165.26,334.37h0c-9.01,5.17-15.94,13.77-18.84,23.64-2.91,9.93-1.51,20.08,3.94,28.6,9.54,14.91,16.74,24.24,24.81,30.65-2.07,4.23-3.45,9-3.99,14.1-1.44,13.49,12.3,18.53,28.21,24.38,13.78,5.06,29.4,10.8,41.81,22.87,5.94,5.78,10.51,13.05,13.23,20.43-6.36-.18-11.92.38-15.84,1.98-8.87,3.64-14.66,9.19-15.89,15.23-.65,3.2-.31,8.15,5.02,13.55,4.49,4.54,10.01,7.01,15.39,7,1.36,0,2.72-.16,4.04-.48,6.2-1.52,11.01-6.43,13.18-13.48,1.75-5.66,1.71-12.25.17-18.97,12.92,1.24,28.32,4.93,39.16,9.38v-.02s.08.05.12.07c17.89,6.13,36.36,9.15,54.71,9.15,31.07,0,61.82-8.66,88.92-25.6,50.85-31.79,81.08-88.8,78.88-148.79-.04-1.21-1.13-2.19-2.27-2.11-1.21.04-2.16,1.06-2.11,2.27,2.14,58.43-27.3,113.96-76.83,144.91-41.99,26.25-92.97,32.09-139.87,16.02,0,0-.01,0-.02,0-.86-.29-1.78-.02-2.35.61.57-.64,1.49-.91,2.35-.61,0,0,.01,0,.02,0-10.92-4.46-27.75-8.7-42-9.84-2.82-8.57-7.99-17.06-14.96-23.84-13.08-12.73-29.87-18.89-43.35-23.85-16.88-6.2-26.38-10.18-25.35-19.79.46-4.29,1.57-8.33,3.23-11.93,6.46,4.33,13.72,7.16,23.25,9.74,12.82,3.46,19.52-1.16,21.5-6.65,2.32-6.41-1.05-15.89-11.86-20.86-7.81-3.59-16.19-3.24-23.59.96-4.24,2.41-7.86,5.93-10.66,10.24-7.52-6.12-14.33-15-23.34-29.09-4.75-7.43-5.97-16.31-3.42-25,2.57-8.78,8.75-16.44,16.78-21.05h0c1.07,1.9,2.14,3.77,3.19,5.53.68,1.14,1.19,2.1,1.63,2.93,1.66,1.39,5.2.55,8.04.24,3.5-.49,4.51-.6,3.94-1.57-.17-.29-.58-.93-1.26-1.99-1.38-2.15-3.96-6.14-7.9-12.61-5.94-9.75-6.71-17.31-4.84-20.48.19-.33.61-.43.94-.24.33.19.43.61.24.94-1.61,2.73-.78,9.86,4.83,19.07,3.93,6.45,6.5,10.44,7.88,12.58.71,1.1,1.13,1.76,1.3,2.07.2.36,2.21,1.53,8.42.77.36-.04,2.21-.11,5.22-2.84,1.79,2.24,3.64,4.4,5.29,6.72.42.58-.04,1.73.29,2.45.31.67.7,1.31,1.11,1.96.74.6,1.87.77,2.89.65,1.21-.35,2.37-.7,3.45-1.14,1.1-.61,2.19-1.23,3.27-1.88.16-.13.32-.28.47-.43.05-.06.11-.12.17-.18.25-.33.5-.67.72-1.02.39-.62.87-1.32,1.05-2.02.14-.53.08-1.13-.04-1.71-1.23-2.39-2.42-4.82-3.65-7.32,0,0,0,0,0,0-.49-.82-.71-1.9-.97-2.81-.2-.71-.3-1.42-.36-2.14-.28-.7-.33-1.41.09-2.07,1.41-2.22,4.45.41,6.21,2.29.25.21.5.42.74.65.12.11.18.24.25.36,1.43,1.78,2.87,3.58,4.34,5.41,1.17.79,2.38,1.35,4.12.99,1.72-.35,3.46-1.14,5.03-2.07.24-.15.48-.31.73-.45.18-.11.36-.22.53-.33.04-.02.07-.02.11-.04.24-.14.48-.28.72-.42.42-.35.81-.74,1.19-1.14,1.15-3.48-.44-6.16-4.14-6.88-.35-.07-.75-.4-.95-.72-4.25-7-8.48-14.02-12.7-21.04-.3-.49-.5-1.05-.78-1.63,2.89-.19,5.33-.7,7.81-1.33,5.53-1.42,11.75-4.14,11.91-4.18,2.25-1.03,4.5-1.68,5.35-3.81.49-1.5.09-3.04-.82-4.41-1.14-1.71-2.37-3.37-3.61-5.02-.62-.51-1.15-1.16-2.03-1.13-.69.03-1.21.29-1.72.62-2.41,1.85-3.07,6.18-3.05,9.05,0,.88-1.36.85-1.37-.03-.01-1.55.17-3.35.62-5.07-2.28,1.65-8.03,4.27-13.45,2.35-3.1-1.11-4.2-2.72-7.48-3.55,1.35-1.72,2.71-3.35,3.96-5.06,1.63-2.22,1.23-3.79-1.12-5.27-.4-.25-.68-.92-.74-1.42-.58-4.99-1.73-9.84-4.23-14.21-4.93-8.61-12.89-13.48-21.85-16.87-5.08-1.93-10.38-2.03-15.67-.74-14.22,3.47-23.69,14.59-24.99,29.21-1.02,11.49,2.44,21.56,9.58,30.49.23.29.44.6.71.96-2.15,1.84-3.46,4.11-4.03,6.82-.86,4.07.75,7.65,4.67,8.99.98.33,1.99.56,3.01.77.05.82.25,1.58.68,2.26,1.56,2.46,3.22,5.36,4.9,8.33m24.97,72.53c6.14-3.49,13.1-3.77,19.59-.79,8.12,3.73,11.24,10.75,9.57,15.37-1.69,4.65-7.91,6.15-16.23,3.9-9.12-2.46-16.05-5.2-22.24-9.43,2.45-3.83,5.61-6.95,9.32-9.05Zm20.48-97.93c.32.58.65,1.18,1.02,1.85.42.75.51,1.64.3,2.48-.21.84-.72,1.64-1.5,2.21-.6.44-1.13.83-1.64,1.2-.75.55-1.43,1.04-2.16,1.55-.72.51-1.49,1.03-2.42,1.63-.4.26-.82.42-1.24.5-.21.04-.42.05-.62.04-.61-.02-1.19-.23-1.67-.6-.32-.25-.59-.56-.8-.94-1.49-2.68-2.5-4.51-3.64-6.58l-2.14-3.86s-.02-.05-.04-.08c-.02-.06-.05-.11-.07-.17-.12-.26-.2-.53-.24-.81,0-.04-.02-.08-.02-.12-.04-.38.02-.76.12-1.14.22-.81.75-1.57,1.59-2.1.63-.39,1.18-.75,1.7-1.09,1.55-1.02,2.77-1.9,4.56-3.23.39-.29.79-.49,1.18-.6.2-.05.39-.09.59-.1.19-.01.38,0,.57.03.37.06.72.21,1.02.43.31.22.57.52.78.9l.35.64.89,1.61,1.36,2.45c.69,1.24,1.36,2.46,2.16,3.89Zm-44.27-.39h0s0,0,0,0h0s0,0,0,0c-.37.61-.71,1.18-1.04,1.73-.09.15-.19.31-.27.45-.41.68-.81,1.33-1.21,1.97-.13.21-.24.41-.32.62-.09.19-.15.38-.2.56h0s0,0,0,0c-.01.02-.02.04-.04.07-.84,1.43-2.19,3.68-3.01,5.99,0,0,0,0,0,0-.28-.09-.56-.2-.83-.31-.41-.17-.82-.35-1.19-.57,0,0,0,0,0,0-.31-.18-.58-.39-.83-.61-.24-.22-.46-.46-.66-.7-.17-.21-.31-.42-.44-.64-.26-.44-.44-.9-.54-1.38-.05-.24-.08-.48-.09-.73,0-.05-.02-.11-.02-.16,0-.41.05-.82.16-1.22.32-1.22,1.1-2.4,2.35-3.33.61-.46,1.25-.76,1.91-.96.49-.15,1-.24,1.51-.31.38-.05.77-.08,1.16-.1.42-.03.85-.05,1.29-.08.77-.05,1.55-.11,2.33-.28h0c-.78.17-1.56.23-2.33.28.77-.05,1.55-.11,2.33-.28Zm.77-5.5c-.21.03-.41.05-.61.06-.19,0-.37,0-.55-.03-.37-.06-.7-.19-1-.43-.1-.08-.19-.16-.28-.26-.09-.1-.18-.2-.26-.32-.77-1.06-1.56-2.12-2.33-3.18s-1.55-2.11-2.33-3.18c-.47-1.2-1-2.38-1.49-3.56-.25-.59-.49-1.19-.71-1.79-.11-.3-.2-.61-.3-.91-.1-.3-.21-.6-.3-.91-.04-.13-.06-.26-.1-.4-.18-.66-.35-1.32-.5-1.97-.17-.79-.32-1.57-.45-2.35-.02-.1-.02-.2-.04-.3-.16-1.05-.26-2.08-.32-3.11-.02-.41-.06-.81-.07-1.22-.06-2.44.16-4.83.68-7.17.39-1.75.96-3.48,1.7-5.16.25-.56.52-1.12.81-1.67.43-.83.92-1.65,1.44-2.47.23-.36.48-.72.73-1.07.21-.3.44-.6.66-.89.03-.04.06-.09.1-.13,0,0,0,0,0,0,.08-.1.15-.21.23-.31,6.55-8.29,19.72-12.33,32.33-5.45,9.68,5.29,14.1,14.13,14.97,25.46.05.72-.16,1.61-.55,2.25h0s0,0,0,0c-1.66,1.67-3.35,3.31-5.11,4.87,0,0,0,0,0,0,0,0,0,0,0,0,0,0,0,0,0,0-.94.83-2.17,1.49-3.37,1.85-1.19.35-2.35.75-3.47,1.21-1.12.47-2.2.99-3.23,1.6-1.55.9-3,1.98-4.34,3.24-.45.42-.88.87-1.3,1.34-.21.23-.47.43-.75.61-.28.17-.58.32-.88.44-1.54.62-3.09,1.2-4.65,1.73-2.34.8-4.71,1.5-7.11,2.1-.98.24-1.96.46-2.95.67-1.44.31-2.88.59-4.33.82Zm88.91,218.45c-1.74,5.62-5.3,9.35-10.03,10.51-5.11,1.26-10.67-.7-15.26-5.34-3.19-3.23-4.48-6.45-3.84-9.59.92-4.51,5.87-9.01,13.26-12.04,2.79-1.14,6.85-1.65,11.65-1.65,1.27,0,2.59.03,3.95.1,1.7,6.45,1.91,12.77.29,18.02Zm42.28-11.04c-.09.28-.13.56-.11.83-.02-.27.02-.55.11-.83.04-.12.1-.24.16-.35-.06.11-.12.23-.16.35Z"/>
      <path class="cls-64" d="m205.95,300.38c.12.22.24.43.35.64l-.35-.64c-.21-.38-.47-.68-.78-.9.31.22.57.52.78.9Z"/>
      <path class="cls-81" d="m203,299.11c-.4.11-.8.31-1.18.6-1.79,1.34-3,2.21-4.56,3.23,1.55-1.02,2.77-1.9,4.56-3.23.39-.29.79-.49,1.18-.6Z"/>
      <path class="cls-3" d="m210.71,308.97c-.79-1.43-1.47-2.65-2.16-3.89l2.16,3.89Z"/>
    </g>
    <g>
      <path class="cls-92" d="m204.64,303.82c-.17-.31-.26-.47-.43-.78-.3-.55-1-.65-1.58-.23-1.59,1.18-2.47,1.79-4.12,2.86-.6.39-.83,1.13-.53,1.68.17.31.26.47.43.78.31.55,1.03.7,1.63.32,1.65-1.07,2.52-1.69,4.12-2.87.58-.43.78-1.21.48-1.76Z"/>
      <path class="cls-97" d="m208.51,311.85c-.3-.55-1-.66-1.58-.23-1.6,1.17-2.46,1.8-4.1,2.88-.6.39-.82,1.13-.52,1.69.17.31.26.47.43.78.31.55,1.03.7,1.62.31,1.64-1.09,2.5-1.72,4.1-2.89.58-.43.79-1.2.48-1.75-.17-.31-.26-.47-.43-.78Z"/>
      <path class="cls-66" d="m206.4,309.93c.58-.43.78-1.21.48-1.76-.17-.31-.26-.47-.43-.78-.3-.55-1-.65-1.58-.23-1.59,1.17-2.47,1.8-4.11,2.87-.6.39-.83,1.13-.52,1.68.17.31.26.47.43.78.31.55,1.03.7,1.62.31,1.64-1.08,2.51-1.71,4.11-2.88Z"/>
    </g>
    <path class="cls-8" d="m279.02,240.36c-4.83-1.05-8.97-3.93-11.64-8.09-1.42-2.21-2.32-4.65-2.71-7.18,5.03,1.56,10.74,3.06,16.73,4.36,2.61.57,9.66,2.04,17.01,3.01-4.1,6.19-11.7,9.57-19.39,7.9Z"/>
    <path class="cls-60" d="m264.86,218.32c1.05-4.83,3.93-8.97,8.09-11.65,3.02-1.94,6.47-2.94,9.97-2.94,1.32,0,2.66.14,3.98.43,9.98,2.17,16.33,12.06,14.16,22.04-.24,1.09-.58,2.13-1,3.13-5.06-.61-11.12-1.6-17.97-3.1-6.85-1.49-12.78-3.11-17.63-4.66.04-1.09.17-2.17.4-3.26Z"/>
    <path class="cls-62" d="m518.21,302.38c6.33.19,10.11,3.54,11.24,9.94.09.52-.25,1.01-.77,1.1-.06.01-.11.01-.17.01-.45,0-.85-.32-.93-.79-.98-5.54-3.97-8.2-9.43-8.37-.52-.02-.94-.46-.92-.98.02-.52.51-.92.98-.92Z"/>
    <path class="cls-77" d="m395.02,463.56c.29-.46.33-1.03.11-1.53l-4.37-9.99,10.58,2.61c.53.13,1.08,0,1.49-.37l8.15-7.24.79,10.87c.04.54.34,1.03.81,1.3l9.41,5.52-10.1,4.11c-.5.2-.87.64-.99,1.17l-2.34,10.65-7.03-8.33c-.32-.37-.78-.59-1.26-.59-.05,0-.11,0-.16,0l-10.85,1.07,5.75-9.26Z"/>
    <path class="cls-80" d="m561.91,348.26c-1.52-4.22-4.21-6.54-8.09-7.88,5.09-1.28,7.41-3.86,8.63-9.41,1.35,5.57,2.76,8.09,7.7,9.42-3.33,1.2-6.55,3.47-8.24,7.87Z"/>
    <path class="cls-32" d="m338.98,477.37c-1.02-2.3-2.58-3.74-4.7-4.67,2.73-.91,4.21-2.51,5.09-5.42.84,2.87,1.91,4.46,4.5,5.4-1.94.87-3.74,2.31-4.89,4.7Z"/>
    <path class="cls-45" d="m185.78,479.18c-2.2,0-3.98-1.79-3.98-3.98s1.79-3.98,3.98-3.98,3.98,1.79,3.98,3.98-1.79,3.98-3.98,3.98Z"/>
    <path class="cls-31" d="m208.69,205.33c1.35,5.57,2.76,8.09,7.7,9.42-3.33,1.2-6.55,3.47-8.24,7.87-1.52-4.22-4.21-6.54-8.09-7.88,5.1-1.28,7.41-3.86,8.63-9.41Z"/>
    <path class="cls-78" d="m339.86,250.14c2.19,0,3.98,1.79,3.98,3.98s-1.79,3.98-3.98,3.98-3.98-1.79-3.98-3.98,1.79-3.98,3.98-3.98Z"/>
    <path class="cls-65" d="m518.73,210.14c2.2,0,3.98,1.79,3.98,3.98s-1.79,3.98-3.98,3.98-3.98-1.79-3.98-3.98,1.79-3.98,3.98-3.98Z"/>
    <path class="cls-102" d="m279.83,279.97c.47,1.18,1.11,1.99,2.18,2.56-.91.54-1.75,1.28-2.4,2.31-.58-1.01-1.35-1.76-2.29-2.31,1.16-.56,1.95-1.37,2.51-2.56Z"/>
    <path class="cls-91" d="m396.61,254.59c.68,2.14,1.58,3.4,3.5,4.2-1.5.75-2.89,1.9-3.83,3.71-.86-1.74-2.1-2.9-3.71-3.69,2.06-.78,3.28-2.06,4.05-4.22Z"/>
    <path class="cls-57" d="m520.37,259.88c.47,1.18,1.1,1.99,2.18,2.56-.91.53-1.75,1.28-2.4,2.31-.58-1.01-1.35-1.75-2.29-2.31,1.16-.56,1.95-1.37,2.51-2.56Z"/>
    <path class="cls-70" d="m450.04,360.58c0-2.2,1.79-3.98,3.98-3.98s3.98,1.79,3.98,3.98-1.79,3.98-3.98,3.98-3.98-1.79-3.98-3.98Z"/>
  </g>
</svg>